<?xml version="1.0" encoding="utf-8"?>
<!-- Generator: Adobe Illustrator 27.0.0, SVG Export Plug-In . SVG Version: 6.00 Build 0)  -->
<svg version="1.1" id="Layer_1" xmlns="http://www.w3.org/2000/svg" xmlns:xlink="http://www.w3.org/1999/xlink" x="0px" y="0px"
	 viewBox="0 0 274.2 310" style="enable-background:new 0 0 274.2 310;" xml:space="preserve">
<style type="text/css">
	.st0{fill:#2256A9;}
	.st1{display:none;}
	.st2{display:inline;fill:#FFFFFF;stroke:#000000;stroke-width:6;stroke-miterlimit:10;}
	.st3{display:inline;fill:none;stroke:#000000;stroke-miterlimit:10;}
	.st4{display:inline;}
	.st5{fill:none;stroke:#000000;stroke-miterlimit:10;}
	.st6{display:inline;fill:none;stroke:#000000;stroke-width:5;stroke-miterlimit:10;}
	.st7{display:inline;fill:none;stroke:#000000;stroke-width:6;stroke-miterlimit:10;}
	.st8{fill:#FF931E;}
	.st9{fill:none;stroke:#000000;stroke-width:12;stroke-miterlimit:10;}
	.st10{stroke:#000000;stroke-miterlimit:10;}
	.st11{fill:#FFFFFF;stroke:#000000;stroke-width:6;stroke-miterlimit:10;}
	.st12{fill:none;stroke:#000000;stroke-width:5;stroke-miterlimit:10;}
	.st13{fill:none;stroke:#000000;stroke-width:6;stroke-miterlimit:10;}
	.st14{fill:none;stroke:#000000;stroke-width:22;stroke-miterlimit:10;}
	.st15{fill:#FF931E;stroke:#000000;stroke-width:6;stroke-miterlimit:10;}
	.st16{fill:none;stroke:#000000;stroke-width:10;stroke-miterlimit:10;}
	.st17{fill:#808080;stroke:#000000;stroke-width:6;stroke-miterlimit:10;}
</style>
<g id="Одежда_женщины">
	<g>
		<g>
			<path class="st0" d="M212.9,201.8c-1.1,9.1-2.2,18.2-3.4,27.2c-0.8,5.9,1.4,11.8,7.7,13.5c5.1,1.4,12.7-1.8,13.5-7.7
				c1.5-11,2.9-22,4.2-33.1c0.7-5.9-5.5-11-11-11C217.4,190.8,213.6,195.9,212.9,201.8L212.9,201.8z"/>
		</g>
	</g>
	<g>
		<g>
			<path class="st0" d="M238.4,201.8c0.2-0.7,0.5-1.4,0.8-2.1c-0.3,0.9-0.2,0.8,0.4-0.4c-0.6,0.7-0.5,0.6,0.4-0.5
				c0.9-1,1.6-2,2.3-3.2c1-1.8,1.8-3.8,2.4-5.7c0.2-0.7,0.4-1.5,0.6-2.2c0.8-2.5-0.1-1.7-2.7,2.3c-1.9,0.5-3.7,1-5.5,1.5
				c0.3,0,0.5,0,0.8,0c-3.7-3.7-7.3-7.3-11-11c0.1-0.4,0.1-0.8,0.2-1.2c-1.4,5.6,1.8,12.2,7.7,13.5c5.7,1.3,12-1.7,13.5-7.7
				c0.4-1.5,0.6-3.1,0.6-4.7c-0.1-5.8-4.9-11.2-11-11c-3.8,0.1-7.2,1.4-9.9,4.2c-2.6,2.8-3.4,6.3-4.4,9.8c-0.1,0.3,0,0.4-0.2,0.8
				c0.4-0.5,0.2-0.3-0.6,0.7c-0.7,0.9-1.4,1.8-2,2.7c-1.6,2.5-2.7,5.4-3.7,8.2c-2,5.4,2.2,12.3,7.7,13.5
				C231.1,210.9,236.3,207.6,238.4,201.8L238.4,201.8z"/>
		</g>
	</g>
	<g>
		<g>
			<path class="st0" d="M244.4,171.9c9.6,0,9.7-15,0-15C234.8,156.9,234.8,171.9,244.4,171.9L244.4,171.9z"/>
		</g>
	</g>
	<g>
		<g>
			<path class="st0" d="M238.1,164c-3.2,5-6.3,10-9.3,15.1c-2.8,5,1.8,11,7.3,9.5c4.1-1.1,5.8-5.1,7.8-8.5c1.8-3.2,3.6-6.5,5.3-9.9
				c1.6-3.1,0.8-7-2.3-8.9c-2.9-1.7-7.3-0.8-8.9,2.3c-1.3,2.5-2.6,5-3.9,7.4c-1.1,2-2.2,4.8-3.6,6.5c1-0.6,1.9-1.1,2.9-1.7
				c-0.2,0-0.4,0.1-0.6,0.1c2.5,3.2,4.9,6.4,7.3,9.5c2.9-5.1,6-10.2,9.3-15.1C253.9,163.5,242.6,157,238.1,164L238.1,164z"/>
		</g>
	</g>
	<g>
		<g>
			<path class="st0" d="M236.7,180.8c-0.7,8.9-1.5,17.8-3.4,26.5c-1.7,7.8-3.2,15.2-3.4,23.2c-0.2,8.9-0.1,17.7,0.2,26.6
				c0.2,7.9-0.1,15.5,5,21.9c5.2,6.5,14.4-2.7,9.2-9.2c-1.6-2-1-6.5-1.1-8.8c-0.2-4-0.3-8-0.3-11.9c-0.1-8-0.3-16,0.2-24
				c0.5-7.1,2.8-13.9,3.9-20.9c1.3-7.8,2-15.6,2.6-23.4C250.4,172.5,237.4,172.5,236.7,180.8L236.7,180.8z"/>
		</g>
	</g>
	<g>
		<g>
			<path class="st0" d="M238.1,214.4c1.2,7.7-1,15.5-1.5,23.1c-0.5,7.9,1.6,15.4,2.3,23.3c0.3,4,0.4,8,0.3,12c0,0.8,0,6.5,0.5,3.5
				c0.3-2.1,0.7-0.7-1.1-1.5c-0.9-0.4-2.5-0.4-3.5-0.5c-7.7-0.9-15.3,0.7-23,0.6c-3.9-0.1-7.6-0.9-11.3-2.1
				c-0.7-0.2-1.9-0.4-2.5-0.8c1.1,0.7,1.1,1.1,1,0c0-1.3-1.9-2.9-2.7-3.7c-0.5-0.5-2.9-2.7-3.7-2.5c-0.2-0.1-0.3-0.2-0.5-0.3
				c0.3,1.4,0.5,2.7,0.8,4.1c0.1,0,1.4-1.1,1.5-1.2c2.4-1.6,4.1-4.6,5.3-7.2c1.3-2.9,2-5.9,3-8.9c1-3.3,2.9-6.1,4.4-9.2
				c3.3-6.9,3.3-13.6,1.9-21c-0.7-3.7-1.5-7.5-3.1-10.9c-1.6-3.4-4.3-6-6.1-9.2c-1.4-2.6-1.9-5.6-2.9-8.4c-1.4-3.7-3.4-6.3-6.6-8.7
				c-2.2,3.7-4.4,7.5-6.6,11.2c14.8,10.4,29.4-2.5,43.8-5.8c-2.1-3.6-4.2-7.2-6.3-10.9c-4.9,4.2-11.4,5.1-15.8,10.2
				c-3,3.5-2.2,9.8,2.9,10.9c1.5,0.3,2.3,0.6,3.6,1.4c0-3.7,0-7.5,0-11.2c-1.5,0.9-3.1,1.6-4.7,2.3c-5.3,2.1-7,11.2,0,12.5
				c1.9,0.4,3.5,0.6,5.5,0.6c0-4.3,0-8.7,0-13c-2.8,0.3-5.5,0.6-8.2,0.9c-7,0.8-9.1,10.4-1.7,12.8c1.9,0.6,3.8,1.3,5.6,2.2
				c1.1-4,2.2-8.1,3.3-12.1c-2.3,0.2-4.5,0.5-6.8,0.8c-6.2,0.9-5.4,9-1.5,11.9c1.1,0.8,2,2,2.9,3c-0.6-2.1-1.1-4.2-1.7-6.3
				c-0.2,0.6-0.4,1.1-0.6,1.7c1.5-1.5,3-3,4.5-4.5c-1.2,0.2-2.4,0.4-3.6,0.6c-2.8,0.5-4.7,3.6-4.8,6.3c-0.1,4.8,1,12.9,5.4,15.8
				c0.8,0.7,0.9,0.7,0.3-0.1c-0.5-1-0.6-0.7-0.3,0.7c-0.6,0.9-0.9,2.4-1.1,3.5c-0.5,3.4,0.1,7.3-0.1,10.8c2.2-2.2,4.3-4.3,6.5-6.5
				c0.6,0.1,1.1,0.3,1.7,0.4c-5.3-3.9-12.2,3.6-8.9,8.9c1.4,2.2-0.1,4.7-0.2,7.2c-0.1,2.3,2.3-2.9-0.1,1.3c-0.6,1-2.6,2.7-0.5,2.9
				c-5.1-0.3-7.9,5.7-5.6,9.8c0,0.2-0.1,0.4-0.1,0.6c1.6-2.1,3.2-4.2,4.8-6.3c0.6,0.2,1.2,0.3,1.8,0.5c-4.1-1.8-7.9-0.3-9.5,3.9
				c-0.2,0.7-0.6,1.2-1.1,1.7c2.6-0.3,5.2-0.7,7.9-1c0.3,0.3,0.7,0.7,1,1c-0.6,2.1-1.1,4.2-1.7,6.3c0.3-0.3,0.7-0.6,1-0.9
				c-2.6,0.3-5.2,0.7-7.9,1c-0.2-0.4-0.4-0.8-0.6-1.2c4-1.7,7.9-3.3,11.9-5c-0.1-0.3-0.3-0.6-0.4-0.9c0.2,1.7,0.4,3.3,0.7,5
				c-4.4,0.4-5.5,1.2-3.5,2.7c2.5,2.3,6.8,2.7,9.2,0c0.8-0.9,0.9-1,1.9-0.4c0-3.7,0-7.5,0-11.2c1.5,0.2,3,0.5,4.5,0.7
				c-1,3.6-1.9,7.2-2.9,10.9c-1.2-0.6-2.4-1.2-3.6-1.9c2.7-2.7,5.3-5.3,8-8c0.2,0.1,0.4,0.3,0.6,0.4c-1.2-6.5-10.9-5.8-12.5,0
				c0.4-0.4,0.9-0.5,1.5-0.1c-1.1,4-2.2,8.1-3.3,12.1c-0.9-0.8-1.8-1.6-2.7-2.4c2.1-2.7,4.2-5.5,6.3-8.2c-1,0-2-0.2-2.9-0.7
				c1.3,3.2,2.6,6.4,3.9,9.5c0.2-0.3,0.4-0.6,0.6-0.9c-1.3,1-2.6,2-3.9,3c-0.6-0.1-1.2-0.2-1.8-0.3c0.8,0.4,1.6,0.7,2.4,1.1
				c1.3,0.6,2.6,1.1,3.9,1.6c2.7,1,5.4,1.9,8.2,2.6c4.3,1.1,8-2,8.2-6.3c0.1-0.3,0.1-0.5,0.2-0.8c-2.1,1.6-4.2,3.2-6.3,4.8
				c2.6-0.2,4,1.3,6.4,1.6c2.3,0.3,4.6-0.6,6.4-2.1c1.3-1.1,2.3-2.8,2.8-4.5c0.8-2.4-0.1-4.8,0.5-7.1c-4.3-0.6-8.5-1.1-12.8-1.7
				c0,0.2,0,0.3,0,0.5c1.6-2.1,3.2-4.2,4.8-6.3c-0.2,0.1-0.4,0.1-0.5,0.2c1.7,0.2,3.3,0.4,5,0.7c1.4,1.8,1.9,2.1,1.3,1
				c0-0.5-0.2-0.6-0.5-0.4c1.6-3,0.9-7.2-2.3-8.9c0.1,0.4,0.2,0.8,0.3,1.3c-0.5-6-6.6-8.1-11.1-4.6c2.1,0.5,4.3,1.1,6.4,1.7
				c-2.3-5.9-10.4-6.4-12.5,0c-0.6,1.9-1.2,3.7-1.8,5.5c-0.9,2.8,0.6,5.8,3,7.3c-0.1-1.5-0.3-3.1-0.5-4.6c3.4,0.4,6.8,0.9,10.2,1.3
				c-0.4-0.6-0.4-1.2-0.1-1.9c-1.6,2.1-3.2,4.2-4.8,6.3c0.2-0.1,0.4-0.1,0.6-0.2c4.8,0.8,9.3-2.8,8-8c0-2.4-0.9-2.6-2.8-0.4
				c3.4-0.1,6.7-2.9,6.5-6.5c-0.2-3.9,0.2-7.4,1.3-11.1c1.3-4.3-2.2-7.9-6.3-8.2c0.3,0,0.5,0,0.8,0.1c-3.7-2.3-8.3,0-9.5,3.9
				c0.4-0.3,0.8-0.6,1.2-1c-7.2,0.3-9,10.7-1.7,12.8c-1-0.9-2-1.9-2.9-2.8c1-2.5,2-4.9,3-7.3c0.2,0,0.3,0,0.5,0
				c0.6,4.3,1.1,8.5,1.7,12.8c0.4-0.1,0.9-0.3,1.3-0.4c-2.1-0.6-4.2-1.1-6.3-1.7c0.3,0.3,0.5,0.6,0.8,1c-0.3-2.6-0.7-5.2-1-7.9
				c-0.2,0.4-0.4,0.8-0.5,1.2c1.3-1,2.6-2,3.9-3c1.3,0.3,2.6,0.5,4,0.8c0,3.1,0,6.1,0,9.2c0.1-0.2,0.3-0.3,0.4-0.5
				c-1.5,0.6-3.1,1.3-4.6,1.9c0.2,0,0.5,0,0.7,0c-1.5-0.6-3.1-1.3-4.6-1.9c0.1,0.2,0.3,0.3,0.4,0.5c0.4-3.4,0.9-6.8,1.3-10.2
				c-0.4,0.3-0.8,0.6-1.2,0.9c-2.8,2.1-4.2,5.6-2.3,8.9c1.6,2.8,6.1,4.5,8.9,2.3c0.4-0.3,0.8-0.6,1.2-0.9c3.5-2.7,4.3-6.7,1.3-10.2
				c-2.7-3.2-8-3.2-10.7,0c-2.4,2.9-2.4,6.3,0,9.2c3.7,4.4,10.8,3.7,13.1-1.7c1.3-3,1-5.3-1-7.9c-0.3-0.3-0.5-0.6-0.8-1
				c-1.4-1.7-4.3-2.3-6.3-1.7c-0.4,0.1-0.9,0.3-1.3,0.4c-6.6,2.1-5.9,13.7,1.7,12.8c2.3-0.3,4-0.6,6.1-1.8c2.7-1.5,3.5-4.5,3-7.3
				c-0.6-3.3-3-5.4-6.1-6.3c-0.6,4.3-1.1,8.5-1.7,12.8c5.6-0.2,9.5-3.3,11.3-8.6c-3.2,1.3-6.4,2.6-9.5,3.9c1.9,1.2,3.5,1.5,5.7,1.7
				c-2.1-2.7-4.2-5.5-6.3-8.2c-1.4,4.8-2,9.6-1.8,14.6c2.2-2.2,4.3-4.3,6.5-6.5c-9.4,0.3-11.8,8.9-9.8,16.8c2.7-2.7,5.3-5.3,8-8
				c-2.7-0.4-4.9-0.5-7.5,0.2c-3,0.8-4.4,3.4-4.8,6.3c-0.4,3,0.4,5.8,1.9,8.4c1.9,3.4,7.5,4.5,10.2,1.3c4.3-5.3,3.7-12-2.2-15.8
				c1,2.5,2,4.9,3,7.3c0.6-1.9,1.2-3.7,1.8-5.5c-4.2,0-8.4,0-12.5,0c2.7,6.8,9.5,8.5,15.3,4.1c-3.7-1.5-7.4-3.1-11.1-4.6
				c0.4,4.4,2.1,7.8,6.1,10c-0.8-3-1.5-5.9-2.3-8.9c-2.2,4.2-1.9,8.5,0.2,12.7c1.7,3.4,5.2,6.5,9.3,4.8c2.8-1.1,4.7-3.1,4.8-6.3
				c0-0.2,0-0.3,0-0.5c0.2-7.3-11-8.9-12.8-1.7c-0.4,1.4-0.6,2.7-0.6,4.2c0,0.6,0,1.1,0.1,1.7c0,1.9,0.8,1.4,2.5-1.4
				c1.7,0.2,3.3,0.4,5,0.7c-3.2-2.1-6.7-3-10.6-2.6c-3,0.3-5.3,1.8-6.3,4.8c-0.5,1.4-0.6,2.8-0.7,4.2c2.7-2.1,5.5-4.2,8.2-6.3
				c-7.6-2-18.4-10.1-24.1-1.1c-2.5,3.9,0.2,8.1,3.9,9.5c2.1,0.8,4.1,1.1,6.3,1.2c4.1,0.1,7.6-4.2,6.3-8.2c-1.5-4.5-5-7.5-9.9-7.2
				c-5.7,0.4-9.7,9.3-3.3,12.1c7.2,3.2,15.4,0.3,17.6-7.7c-4.2,0-8.4,0-12.5,0c0.8,4.4,4.1,7.6,8.4,8.7c4.7,1.1,9.5-3.1,8-8
				c-1.8-5.8-6.6-8.2-12.4-7.2c-5,0.9-6.1,7.6-2.9,10.9c3,3,7.6,3.8,11.3,1.3c4-2.7,4.4-8.6,0-11.2c-5.8-3.5-13.1-2.6-17.6,2.5
				c3.1,0,6.1,0,9.2,0c-3.7-3.4-8.7-6-13.6-3.4c-4.8,2.6-5.6,7.8-3.6,12.3c3.1,6.7,14,2,11.9-5c-0.9-3-2.5-5.3-5.4-6.6
				c-2.8-1.2-5.5-1.1-7.9,1c-4.9,4.4-2.8,10.8,2.3,14c2.3,1.4,6,1.1,7.9-1c2-2.3,3.4-4.6,4.5-7.5c-3.2,1.3-6.4,2.6-9.5,3.9
				c2.8,1.2,5.2,1.8,8.2,0.8c3-0.9,4.4-3.3,4.8-6.3c0.3-2.6-0.4-4.8-1.6-7.1c-1.9,3.3-3.7,6.5-5.6,9.8c6.4,0.4,11-6.1,13.1-11.5
				c1-2.5,0.8-5.8,1.3-8.5c0.7-3.9-0.2-7.6-2.3-10.9c-3,3-5.9,5.9-8.9,8.9c1.5,1.1,3,1.5,4.9,1.4c3.7-0.1,6.3-2.9,6.5-6.5
				c0.2-2.8-0.2-6.6,0.1-8.8c0.5-3.1,1.5-5.5,0.9-8.7c-0.5-2.5-1.4-4.6-3.1-6.5c-1.4-1.1-1.8-1.4-1.1-0.8c0.6,0.5,0.5,0.1-0.4-1.2
				c-0.2-1.6-0.6-3-0.5-4.6c-1.6,2.1-3.2,4.2-4.8,6.3c1.2-0.2,2.4-0.4,3.6-0.6c2.2-0.4,3.9-2.5,4.5-4.5c2-6.2-2.1-9.7-6.7-13.1
				c-0.5,4-1,7.9-1.5,11.9c1.1-0.2,2.2-0.3,3.3-0.4c5.8-0.5,9.6-9.1,3.3-12.1c-2.8-1.4-5.7-2.5-8.7-3.5c-0.6,4.3-1.1,8.5-1.7,12.8
				c2.8-0.3,5.5-0.6,8.2-0.9c8.1-0.9,8.6-13,0-13c-0.7,0-1.3-0.1-2-0.1c0,4.2,0,8.4,0,12.5c2.7-1.1,5.3-2.2,7.8-3.6
				c4.4-2.4,4.1-8.8,0-11.2c-2.1-1.3-4.3-2.2-6.7-2.7c1,3.6,1.9,7.2,2.9,10.9c4-4.7,11-6.1,15.8-10.2c5.3-4.5-0.5-12.2-6.3-10.9
				c-6.5,1.5-12.2,4.8-18.3,7.2c-5.1,2-10.7,3.3-15.5-0.1c-6.9-4.9-13.1,6.3-6.6,11.2c1.7,1.3,2,5.3,2.6,7.1c1.2,3.6,3,6.4,5.2,9.5
				c4.1,5.5,7,15,5.1,21.8c-0.9,3.3-3.2,6.3-4.6,9.4c-1.5,3.3-2.2,6.9-3.4,10.3c-2.2,6.1-10.5,8.7-8,16.6c1,3.3,3.5,4.6,6,6.6
				c1.8,1.4,2.8,4.9,6.1,6.5c7.4,3.6,16.4,4.4,24.5,3.9c4.1-0.2,8.3-0.8,12.4-0.7c4.2,0,8.6,1.5,12.8,1c9.7-1.2,9.6-10.2,9.6-17.9
				c0-9.8-2.7-19.2-2.8-28.9c0-10.2,2.8-19.9,1.2-30.1C249.3,202.7,236.8,206.2,238.1,214.4L238.1,214.4z"/>
		</g>
	</g>
	<g>
		<g>
			<path class="st0" d="M210,253.3c1.3-3.1,2.9-6.1,4.7-9c1.8-2.9,0.7-7.3-2.3-8.9c-3.2-1.7-7-0.8-8.9,2.3c-1.8,2.9-3.4,5.9-4.7,9
				c-1.3,3.1-1,7.1,2.3,8.9C203.9,257.1,208.6,256.6,210,253.3L210,253.3z"/>
		</g>
	</g>
</g>
<g id="женщина__x28_копия_x29_" class="st1">
	<path class="st2" d="M132.6,80.5c2.1-4.2,18.1-34.2,50-37c30.2-2.6,53.1,20.9,63,40c11.8,22.8,10.2,49.6-1,70
		c-3.4,6.1-14.7,26.6-38,32c-17.3,4-32.1-2.8-39-6c-16-7.3-25-18.4-27-21C125.2,138.8,118.9,107.4,132.6,80.5z"/>
	<line class="st3" x1="-144.4" y1="-106.5" x2="-144.4" y2="-106.5"/>
	<path class="st3" d="M218.1,49"/>
	<path class="st3" d="M160.1,43"/>
	<g id="XMLID_00000031924635569051792800000001473645102348734094_" class="st4">
		<g>
			<path d="M225.1,64c5.2-1.7,11,0.9,11,2c0,1-4.5,0.2-10,3c-6.4,3.3-5.8,7.2-11,9c-5.6,1.9-7.9-1.9-13,0c-5.3,2-3.9,7.3-9,10
				c-6.6,3.4-12.7-4.4-19-1c-4.9,2.6-3.8,8.5-9,10c-3.2,0.9-4.6-1.1-9,0c-0.6,0.1-4.3,1.1-7,4c-4.7,5.1-3.5,12.7-3,16
				c0.7,4.3,2.8,8.3,7,16c3.4,6.2,4.8,8.1,9,16c3.2,6.1,4.8,9.4,5,14c0,1.1,0.2,4.4-1,8c-4,12.2-19.6,16.6-20,16
				c-0.3-0.5,9.5-4,14-14c2.2-4.9,2-9.1,2-10c-0.2-4-1.8-7-5-13c-7.2-13.4-7.2-13.3-8-15c-4.1-8.3-6.2-12.4-7-18
				c-0.5-3.8-1.9-13.4,4-20c0.8-0.9,3.6-4,8-5c3.8-0.9,4.9,0.7,8,0c5.9-1.2,5.4-7.5,11-10c6.6-3,11.3,4,18,1c5.4-2.4,4.2-7.8,10-10
				c5.2-2,7.6,1.9,13,0C219.8,71,219.4,65.9,225.1,64z"/>
		</g>
		<g>
			<path class="st5" d="M236.1,66c0,1-4.5,0.2-10,3c-6.4,3.3-5.8,7.2-11,9c-5.6,1.9-7.9-1.9-13,0c-5.3,2-3.9,7.3-9,10
				c-6.6,3.4-12.7-4.4-19-1c-4.9,2.6-3.8,8.5-9,10c-3.2,0.9-4.6-1.1-9,0c-0.6,0.1-4.3,1.1-7,4c-4.7,5.1-3.5,12.7-3,16
				c0.7,4.3,2.8,8.3,7,16c3.4,6.2,4.8,8.1,9,16c3.2,6.1,4.8,9.4,5,14c0,1.1,0.2,4.4-1,8c-4,12.2-19.6,16.6-20,16
				c-0.3-0.5,9.5-4,14-14c2.2-4.9,2-9.1,2-10c-0.2-4-1.8-7-5-13c-7.2-13.4-7.2-13.3-8-15c-4.1-8.3-6.2-12.4-7-18
				c-0.5-3.8-1.9-13.4,4-20c0.8-0.9,3.6-4,8-5c3.8-0.9,4.9,0.7,8,0c5.9-1.2,5.4-7.5,11-10c6.6-3,11.3,4,18,1c5.4-2.4,4.2-7.8,10-10
				c5.2-2,7.6,1.9,13,0c5.7-2.1,5.3-7.2,11-9C230.4,62.4,236.2,64.9,236.1,66z"/>
		</g>
	</g>
	<path class="st6" d="M194,128.9c0.2,0.1-0.1,2.6-1,5c-0.7,1.9-1.2,2.3-1,3c0.7,2.2,7,1.6,7,2c0,0.4-5.2,2.1-7,0
		C189.7,136.3,193.7,128.8,194,128.9z"/>
	<path class="st7" d="M184.1,155.6c0.2-0.2,2.7,4.5,7.6,6c4.7,1.4,10.8-0.3,13-4c1.2-2.1,1.2-4.8,1.4-4.8c0.1,0,0.1,1.4-0.4,2.8
		c-1.4,4.2-6.2,5.7-7,6c-0.7,0.2-5.5,1.7-10-1C185.4,158.7,183.9,155.7,184.1,155.6z"/>
	<g class="st4">
		<g>
			<path d="M171.1,118.2c4.5,0,4.5-7,0-7C166.6,111.2,166.6,118.2,171.1,118.2L171.1,118.2z"/>
		</g>
	</g>
	<g class="st4">
		<g>
			<path d="M212.3,115.6c4.5,0,4.5-7,0-7S207.8,115.6,212.3,115.6L212.3,115.6z"/>
		</g>
	</g>
	<path class="st7" d="M272.6,156.5"/>
</g>
<g id="Внутри_дома">
	<path class="st5" d="M7.1,93"/>
	<g>
		<g>
			<path class="st8" d="M76.8,194.5c-0.1,1.2,0.2,2.4,0.8,3.5c0.1,0.2,0.5,0.3,0.7,0.2c0.2-0.1,0.3-0.4,0.2-0.7
				c-0.6-1.3-0.9-2.6-1-4.1c-0.3,0-0.6,0.1-1,0.1c0.3,1.1,0.6,2.3,0.9,3.4c0.2,0.6,1.1,0.4,1-0.3c-0.3-1.4-0.5-2.9-0.5-4.3
				c-0.3,0-0.6,0.1-1,0.1c0.3,1.7,0.6,3.4,0.9,5.2c0.1,0.5,1.1,0.4,1-0.1c-0.1-0.4-0.1-0.8-0.2-1.2c0-0.3-0.2-0.5-0.5-0.5
				c-0.2,0-0.5,0.2-0.5,0.5c0.1,0.4,0.1,0.8,0.2,1.2c0.3,0,0.6-0.1,1-0.1c-0.3-1.7-0.6-3.4-0.9-5.2c-0.1-0.6-1-0.4-1,0.1
				c0,1.5,0.2,3.1,0.5,4.6c0.3-0.1,0.6-0.2,1-0.3c-0.3-1.1-0.6-2.3-0.9-3.4c-0.1-0.5-1-0.4-1,0.1c0.1,1.6,0.4,3.1,1.1,4.6
				c0.3-0.2,0.6-0.3,0.9-0.5c-0.5-0.9-0.7-2-0.6-3C77.8,193.9,76.8,193.9,76.8,194.5L76.8,194.5z"/>
		</g>
	</g>
	<g>
		<g>
			<path class="st8" d="M82,196.2c0-0.1,0-0.2,0-0.2c0-0.5-0.1-0.9-0.3-1.4c-0.1-0.4-0.4-0.8-0.7-1.1c-0.3-0.3-0.7-0.6-1.1-0.7
				c-0.4-0.2-0.9-0.3-1.4-0.3c-0.3,0-0.6,0.1-0.9,0.1c-0.6,0.2-1.1,0.5-1.5,0.9c-0.2,0.2-0.4,0.5-0.6,0.7c-0.3,0.5-0.5,1.1-0.5,1.8
				c0,0.1,0,0.2,0,0.2c0,0.5,0.1,0.9,0.3,1.4c0.1,0.4,0.4,0.8,0.7,1.1c0.3,0.3,0.7,0.6,1.1,0.7c0.4,0.2,0.9,0.3,1.4,0.3
				c0.3,0,0.6-0.1,0.9-0.1c0.6-0.2,1.1-0.5,1.5-0.9c0.2-0.2,0.4-0.5,0.6-0.7C81.8,197.5,82,196.9,82,196.2L82,196.2z"/>
		</g>
	</g>
	<g>
		<g>
			<path class="st8" d="M82.4,194.8c0.2-1.3-0.1-1.1-0.9,0.6c-0.9,0.1-1.8,0.2-2.7,0.4c0.1,0,0.3,0.1,0.5,0.1
				c-0.7-0.5-1.4-1.1-2.1-1.6c0.1,0.2,0.2,0.4,0.2,0.5c-0.1-0.9-0.2-1.8-0.4-2.7c0.4-0.4,0.9-0.7,1.3-1.1c1.1,0.3,2.3,0.6,3.4,0.9
				c-0.1-0.1-0.3-0.3-0.4-0.4c0.3,0.8,0.7,1.6,1,2.5c0-0.2,0-0.4,0-0.6c-0.3,0.8-0.7,1.6-1,2.5c0.1-0.1,0.3-0.2,0.4-0.4
				c-1.1,0.3-2.3,0.6-3.4,0.9c0.2,0.1,0.4,0.1,0.6,0.2c-0.7-0.5-1.4-1.1-2.1-1.6c0.1,0.2,0.2,0.4,0.3,0.5c-0.1-0.9-0.2-1.8-0.4-2.7
				c-0.1,0.2-0.1,0.4-0.2,0.6c1.9-0.5,3.9-1,5.9-1.5c-0.1,0.9-0.1,1.8-0.2,2.8c-1.8-1-3.5-2-5.3-3c-0.2,0.8-0.2,1.6-0.1,2.5
				c0.1,3.8,6.3,5,6.9,0.9c-0.1-0.8,0.2-1.3,0.9-1.7c-1.9-1.1-3.9-2.3-5.9-3.4c-1.8,5.5-4.6,11.3-4.6,17.2c2.3,0,4.7,0,7,0
				c-0.3-2.8-1.2-5-3.2-7.1c0.3,1.1,0.6,2.3,0.9,3.4c1-2.9,1.1-5.9,0.4-8.9c-1-4.4-7.8-2.5-6.8,1.9c0.4,1.9,0.2,3.4-0.4,5.2
				c-0.4,1.2,0.1,2.5,0.9,3.4c0.6,0.6,1.1,1.3,1.2,2.2c0.5,4.3,7,4.6,7,0c0-5.1,2.8-10.5,4.4-15.3c1.2-3.6-3.4-5.5-5.9-3.4
				c-1.5,1.3-2.4,2.9-2.7,4.8c2.3,0.3,4.6,0.6,6.9,0.9c-0.1-0.8,0-1.6,0.1-2.5c0.4-2.7-3.2-4.2-5.3-3c-3.2,1.9-3.4,5.5-1.2,8.2
				c1.7,2.1,5.2,0.8,5.9-1.5c1.1-3.9-3.2-7.5-6.5-4.7c-3.2,2.7-0.8,8,3.3,7.3c3.7-0.6,5.2-6.2,1.7-8.3c-4.1-2.4-6.3,2-6.5,5.3
				C75.1,199.3,82.1,199.2,82.4,194.8L82.4,194.8z"/>
		</g>
	</g>
	<g>
		<g>
			<path class="st8" d="M80.9,188c-6.1-2.8-14.1-7.2-21-7c-1.9,0-3.5,1.6-3.5,3.5c0,0.5,0,0.9,0,1.4c0,2,1.6,3.4,3.5,3.5
				c3.1,0.1,6.5,2.8,9.2,4.3c2,1.1,3.5,3.4,5.6,4.1c4.1,1.4,8.2-2.7,10.2-5.8c2.5-3.8-3.6-7.3-6-3.5c-0.5,0.8-1.3,1.9-2.3,2.3
				c0.9,0.5,1.1,0.4,0.4-0.2c-0.2-0.3-0.4-0.5-0.7-0.7c-1.4-1.3-3.4-2.1-5-3.1c-3.7-2-7.1-4.3-11.4-4.5c1.2,1.2,2.3,2.3,3.5,3.5
				c0-0.5,0-0.9,0-1.4c-1.2,1.2-2.3,2.3-3.5,3.5c5.5-0.1,12.6,3.8,17.5,6.1C81.5,195.9,85,189.9,80.9,188L80.9,188z"/>
		</g>
	</g>
	<g>
		<g>
			<path class="st8" d="M76.1,221.9c0.8-0.5,1.5-1.1,2-2c0.5-0.9,0.7-1.7,0.8-2.7c0.1-0.8-0.4-1.9-1-2.5c-0.6-0.6-1.6-1.1-2.5-1
				c-0.9,0-1.8,0.3-2.5,1c-0.2,0.2-0.4,0.5-0.6,0.7c-0.3,0.5-0.5,1.1-0.5,1.8c0,0,0,0.1,0,0.1c0-0.3,0.1-0.6,0.1-0.9
				c0,0.2-0.1,0.4-0.1,0.6c0.1-0.3,0.2-0.6,0.4-0.8c-0.1,0.2-0.2,0.3-0.3,0.5c0.2-0.2,0.4-0.5,0.6-0.7c-0.1,0.1-0.3,0.3-0.4,0.4
				c0.2-0.2,0.5-0.4,0.7-0.5c-0.1,0-0.1,0.1-0.2,0.1c-0.8,0.5-1.4,1.2-1.6,2.1c-0.2,0.8-0.1,2,0.4,2.7c0.5,0.8,1.2,1.4,2.1,1.6
				C74.3,222.5,75.3,222.4,76.1,221.9L76.1,221.9z"/>
		</g>
	</g>
	<g>
		<g>
			<path class="st8" d="M70.6,224.2c0,0.5,0.1,0.9,0,1.4c0-0.3,0.1-0.6,0.1-0.9c0,0,0,0.1,0,0.1c0.1-0.3,0.2-0.6,0.4-0.8
				c0,0,0,0,0,0c0.2-0.2,0.4-0.5,0.6-0.7c0,0,0,0,0,0c0.5-0.3,1-0.6,1.5-0.9c0,0,0,0,0,0c0.3,0,0.6-0.1,0.9-0.1c0,0,0,0,0,0
				c0.3,0,0.6,0.1,0.9,0.1c0,0,0,0,0,0c0.3,0.1,0.6,0.2,0.8,0.4c0,0,0,0,0,0c0.2,0.2,0.5,0.4,0.7,0.5c0,0,0,0-0.1-0.1
				c0.2,0.2,0.4,0.5,0.6,0.7c0,0,0,0,0,0c-0.2-0.4-0.5-0.7-0.9-1c-0.3-0.3-0.7-0.5-1.2-0.6c-0.8-0.2-1.9-0.1-2.7,0.4
				s-1.4,1.2-1.6,2.1c-0.2,0.9-0.2,2,0.4,2.7c0.4,0.6,0.7,1,1.4,1.4c0.8,0.5,1.8,0.6,2.8,0.4c1.2-0.3,2.3-1.4,2.5-2.6
				c0.2-0.8,0.1-1.5,0.1-2.3c0-0.9-0.4-1.8-1-2.5c-0.6-0.6-1.6-1.1-2.5-1c-0.9,0-1.8,0.3-2.5,1C71,222.4,70.6,223.3,70.6,224.2
				L70.6,224.2z"/>
		</g>
	</g>
	<g>
		<g>
			<path class="st8" d="M33.2,255.9c-0.3,3.9-0.1,7.9,0.6,11.7c0.1,0.6,1.1,0.4,1-0.3c-0.7-3.8-0.9-7.6-0.6-11.5
				C34.3,255.2,33.3,255.2,33.2,255.9L33.2,255.9z"/>
		</g>
	</g>
	<g>
		<g>
			<path class="st8" d="M34.4,253.2c-0.4,0.1-0.7,0.1-1.1,0.2c2.1,0.3,4.1,0.5,6.2,0.8c-0.3-0.2-0.7-0.4-1-0.6c1,1,1.9,1.9,2.9,2.9
				c-0.2-0.3-0.3-0.6-0.5-0.9c0.4,1.4,0.7,2.7,1.1,4c0-0.3,0.1-0.6,0.1-1c-0.8,1.9-1.6,3.8-2.3,5.7c0.2-0.2,0.5-0.4,0.8-0.6
				c-2.6,0.7-5.2,1.4-7.8,2.1c0.3,0.1,0.6,0.1,0.9,0.2c7.6,2,13.7-7.7,7.8-13.4c-1.5-1.5-3-2.9-4.5-4.3c-2.6,4.5-5.2,8.9-7.8,13.4
				c1.7,0.4,3.4,0.8,5.1,1.2c-1.6-3.9-3.2-7.8-4.8-11.8c-3,6.3-3.1,14.3-2.8,21.2c0.2,3.1,0.6,6.1,2.6,8.7c2.6,3.2,5.1,3,8.8,4.1
				c9.9,2.9,14.1-12.5,4.2-15.4c-1.3-0.4-2.6-0.4-3.8-0.6c1.2,0.7,2.4,1.4,3.5,2.1c0.2,0.7,0.5,1.4,0.8,2.1
				c-0.1-0.9-0.1-1.8-0.1-2.7c0-1.5,0-3,0.1-4.5c0.1-2-0.3-5,0.6-6.9c2.1-4.5,0.6-10.5-4.8-11.8c-1.7-0.4-3.4-0.8-5.1-1.2
				c-7.5-1.8-13.7,7.7-7.8,13.4c1.5,1.5,3,2.9,4.5,4.3c2.6-4.5,5.2-8.9,7.8-13.4c-6.1-1.6-11.9,2.6-11.9,9c0.1,6.8,6.7,10.1,12.6,9
				c4.2-0.8,6.7-5.9,5.6-9.8C43,254.3,38.7,252.4,34.4,253.2L34.4,253.2z"/>
		</g>
	</g>
	<g>
		<g>
			<path class="st8" d="M53.2,279.9c0-0.1,0-0.1,0-0.2c0-0.8-0.1-1.5-0.5-2.1c-0.2-0.7-0.6-1.3-1.1-1.8c-0.5-0.5-1.1-0.9-1.8-1.1
				c-0.7-0.3-1.4-0.5-2.1-0.5c-0.5,0.1-1,0.1-1.5,0.2c-0.9,0.3-1.7,0.7-2.4,1.4c-0.3,0.4-0.6,0.7-0.9,1.1c-0.5,0.9-0.8,1.8-0.8,2.8
				c0,0.1,0,0.1,0,0.2c0,0.8,0.1,1.5,0.5,2.1c0.2,0.7,0.6,1.3,1.1,1.8c0.5,0.5,1.1,0.9,1.8,1.1c0.7,0.3,1.4,0.5,2.1,0.5
				c0.5-0.1,1-0.1,1.5-0.2c0.9-0.3,1.7-0.7,2.4-1.4c0.3-0.4,0.6-0.7,0.9-1.1C53,281.9,53.2,280.9,53.2,279.9L53.2,279.9z"/>
		</g>
	</g>
	<g>
		<g>
			<path class="st8" d="M47.7,285.4c7.1,0,7.1-11,0-11C40.6,274.4,40.6,285.4,47.7,285.4L47.7,285.4z"/>
		</g>
	</g>
	<g>
		<g>
			<path class="st8" d="M45.5,284.8c1.6,0.8,3.4,1.8,5.2,1.9c2.5,0,4.8-1.7,5.5-4.1c0.4-1.5,0.2-3-0.6-4.3c-0.5-0.8-1.1-1.5-2-2
				c-0.5-0.2-0.9-0.4-1.4-0.6c-1-0.3-1.9-0.3-2.9,0c-0.9,0.3-1.7,0.7-2.4,1.4c0,0,0,0,0,0c-1,1-1.6,2.4-1.6,3.9c0,1.4,0.6,3,1.6,3.9
				c1.1,1,2.4,1.7,3.9,1.6c1.4-0.1,2.9-0.5,3.9-1.6c0,0,0,0,0,0c-1.8,0.5-3.6,0.9-5.4,1.4c0,0,0,0,0.1,0c-1.1-0.8-2.2-1.7-3.3-2.5
				c0,0,0,0,0,0.1c-0.2-1.4-0.4-2.8-0.6-4.2c0,0,0,0,0,0.1c0.8-1.1,1.7-2.2,2.5-3.3c0,0-0.1,0-0.1,0c0.9-0.2,1.9-0.5,2.8-0.8
				c0,0-0.1,0-0.1,0c0.5,0.1,1,0.1,1.5,0.2c0,0-0.1,0-0.1,0c0.4,0.2,0.9,0.4,1.3,0.5c-0.8-0.4-1.6-0.7-2.3-1.1
				c-0.6-0.4-1.3-0.6-2-0.6c-0.7-0.2-1.5-0.1-2.2,0.1c-1.3,0.4-2.7,1.3-3.3,2.5c-0.7,1.3-1,2.8-0.6,4.2
				C43.4,282.8,44.2,284.2,45.5,284.8L45.5,284.8z"/>
		</g>
	</g>
	<g>
		<g>
			<path class="st8" d="M36.5,264.4c1,2.5,2.1,5,3.1,7.4c1.1,2.6,3.7,4.8,6.8,3.8c2.6-0.8,5-3.9,3.8-6.8c-1-2.5-2.1-5-3.1-7.4
				c-1.1-2.6-3.7-4.8-6.8-3.8C37.8,258.4,35.3,261.5,36.5,264.4L36.5,264.4z"/>
		</g>
	</g>
	<g>
		<g>
			<path class="st8" d="M71.4,232.9c5.1,0,5.2-8,0-8C66.2,224.9,66.2,232.9,71.4,232.9L71.4,232.9z"/>
		</g>
	</g>
	<g>
		<g>
			<path class="st8" d="M79.4,219.3c0.7-3.2,1.1-6.4,1.2-9.6c0.2-5.1-7.8-5.1-8,0c-0.1,2.5-0.4,5-0.9,7.5c-0.4,2.1,0.6,4.3,2.8,4.9
				C76.5,222.6,79,221.4,79.4,219.3L79.4,219.3z"/>
		</g>
	</g>
	<g>
		<g>
			<path class="st8" d="M70.8,216.7c0,0,0,0.1,0,0.1c0,0.5,0.1,1.1,0.3,1.5c0.2,0.5,0.4,0.9,0.8,1.3c0.4,0.4,0.8,0.7,1.3,0.8
				c0.5,0.2,1,0.4,1.5,0.3c0.4,0,0.7-0.1,1.1-0.1c0.7-0.2,1.3-0.5,1.8-1c0.2-0.3,0.4-0.5,0.6-0.8c0.4-0.6,0.5-1.3,0.6-2
				c0,0,0-0.1,0-0.1c0-0.5-0.1-1.1-0.3-1.5c-0.2-0.5-0.4-0.9-0.8-1.3c-0.4-0.4-0.8-0.7-1.3-0.8c-0.5-0.2-1-0.4-1.5-0.3
				c-0.4,0-0.7,0.1-1.1,0.1c-0.7,0.2-1.3,0.5-1.8,1c-0.2,0.3-0.4,0.5-0.6,0.8C71,215.3,70.8,216,70.8,216.7L70.8,216.7z"/>
		</g>
	</g>
	<g>
		<g>
			<path class="st8" d="M74.7,214.3C74.7,214.3,74.6,214.3,74.7,214.3c-0.6,0-1.1,0.1-1.6,0.3c-0.5,0.2-0.9,0.4-1.3,0.8
				c-0.4,0.4-0.7,0.8-0.8,1.3c-0.2,0.5-0.4,1-0.3,1.5c0.1,0.4,0.1,0.7,0.1,1.1c0.2,0.7,0.5,1.3,1,1.8c0.3,0.2,0.5,0.4,0.8,0.6
				c0.6,0.4,1.3,0.5,2,0.5c0,0,0,0,0.1,0c0.6,0,1.1-0.1,1.5-0.3c0.5-0.2,0.9-0.4,1.3-0.8c0.4-0.4,0.7-0.8,0.8-1.3
				c0.2-0.5,0.4-1,0.3-1.5c-0.1-0.4-0.1-0.7-0.1-1.1c-0.2-0.7-0.5-1.3-1-1.8c-0.3-0.2-0.5-0.4-0.8-0.6
				C76.1,214.5,75.4,214.3,74.7,214.3L74.7,214.3z"/>
		</g>
	</g>
	<g>
		<g>
			<path class="st8" d="M74.3,223c5.1,0,5.2-8,0-8C69.1,215,69.1,223,74.3,223L74.3,223z"/>
		</g>
	</g>
	<g>
		<g>
			<path class="st8" d="M74.7,223c5.1,0,5.2-8,0-8C69.5,215,69.5,223,74.7,223L74.7,223z"/>
		</g>
	</g>
	<g>
		<g>
			<path class="st8" d="M47.5,276c0,0.1,0.1,0.2,0.1,0.2c0.2,0.5,0.6,0.8,1,1.1c0.4,0.4,0.8,0.6,1.4,0.7c0.5,0.2,1.1,0.2,1.6,0.1
				c0.5,0,1-0.2,1.5-0.5c0.3-0.2,0.5-0.4,0.8-0.6c0.5-0.5,0.8-1.1,1-1.8c0.1-0.4,0.1-0.7,0.1-1.1c0-0.7-0.2-1.4-0.6-2
				c0-0.1-0.1-0.2-0.1-0.2c-0.2-0.5-0.6-0.8-1-1.1c-0.4-0.4-0.8-0.6-1.4-0.7c-0.5-0.2-1.1-0.2-1.6-0.1c-0.5,0-1,0.2-1.5,0.5
				c-0.3,0.2-0.5,0.4-0.8,0.6c-0.5,0.5-0.8,1.1-1,1.8c-0.1,0.4-0.1,0.7-0.1,1.1C47,274.7,47.2,275.4,47.5,276L47.5,276z"/>
		</g>
	</g>
</g>
<g id="Слой_1">
	<path class="st9" d="M241.4,288.5H32.8c-5.6,0-10.2-4.6-10.2-10.3c0-59.5,0-119.1,0-178.6c0-1.8,0-3.5,0-5.3c0-0.7,0.1-4.3,3-7.3
		c1.9-1.9,4.4-3,7.2-3h208.6c5.6,0,10.2,4.6,10.2,10.3v183.9C251.6,283.9,247,288.5,241.4,288.5z"/>
	<g>
		<path d="M15.1,99.7c-5.1,0-9.2-1.4-11.6-4c-1.7-1.8-3.4-5.1-2.9-8.6C1.3,83,5,80.4,6.4,79.4c35.1-24.5,52.7-36.8,107-70l0.5-0.3
			c2-1.2,5.3-3,9.4-4.7c5.3-2.1,9.9-4,15.5-4c0.4,0,0.8,0,1.2,0c4.7,0.2,8.1,1.6,13.8,4c3.5,1.4,6.8,3.1,9.9,4.9
			c29.6,17.7,53.2,34,100.2,66.4l3.8,2.6c1.4,1,5.2,3.6,5.8,7.7c0.5,3.3-1.5,6.1-1.9,6.6c-2.4,3.2-7.1,4.8-13.7,4.8
			c-0.7,0-1.3,0-1.7,0l-0.2,0c-2.3-0.1-8.5-0.1-18.5-0.1c-51.9,0-203.2,0.9-219.6,2.1l-0.2,0C17.2,99.6,16.3,99.7,15.1,99.7z"/>
		<path d="M138.8,1c0.4,0,0.8,0,1.2,0c4.6,0.2,8,1.6,13.7,3.9c3.5,1.4,6.8,3.1,9.8,4.9l0.1,0c29.5,17.7,53.1,33.9,100.1,66.3
			l3.8,2.6c1.4,0.9,5,3.5,5.6,7.3c0.4,3.1-1.4,5.8-1.8,6.3c-2.3,3-6.9,4.6-13.3,4.6c-0.7,0-1.2,0-1.7,0l-0.2,0
			c-2.3-0.1-8.5-0.1-18.5-0.1c-51.9,0-203.2,0.9-219.6,2.1l-0.2,0c-0.6,0.1-1.6,0.1-2.8,0.1c-5,0-8.9-1.3-11.2-3.8
			c-1.6-1.7-3.3-4.9-2.7-8.1c0.6-3.9,4.2-6.4,5.6-7.3c35.1-24.5,52.7-36.7,107-70c0.1,0,0.2-0.2,0.5-0.3c2-1.2,5.2-3,9.4-4.6
			C128.8,2.8,133.3,1,138.8,1 M138.8,0c-5.7,0-10.4,1.9-15.7,4c-4.6,1.9-8,3.8-9.5,4.7c-0.3,0.2-0.5,0.3-0.5,0.3
			C58.8,42.3,41.3,54.5,6.1,79c-1.6,1.1-5.3,3.8-6,8c-0.6,3.4,0.9,6.8,3,9c3.3,3.5,8.5,4.1,12,4.1c1.3,0,2.4-0.1,3-0.1
			c16.1-1.1,165.5-2.1,219.5-2.1c9.6,0,16.1,0,18.5,0.1c0.5,0,1.1,0,1.9,0c3.8,0,10.6-0.5,14.1-5c0.3-0.4,2.5-3.4,2-7
			c-0.6-4.3-4.5-7-6-8c-49.1-33.9-73.7-50.8-104-69c-0.9-0.5-4.6-2.8-10-5c-5.6-2.3-9.2-3.8-14-4C139.7,0,139.3,0,138.8,0L138.8,0z"
			/>
	</g>
	<path class="st10" d="M333.1,42"/>
	<g>
		<g>
			<path d="M30.5,95.7c-1.4,4.3-2.7,8.6-4.1,12.9c2.3,0.3,4.6,0.6,6.9,0.9c-0.1-3.6,0.1-7.2,0.7-10.8c-2.3-0.3-4.6-0.6-6.9-0.9
				c0.2,3.1-0.1,5.9-0.9,8.9c2.3,0.3,4.6,0.6,6.9,0.9c0.1-3.1,0.8-6.1,2-9c-2.2-0.6-4.4-1.2-6.5-1.8c0.5,4.5,0.4,8.9-0.1,13.4
				c-0.5,3.9,6.2,4.8,6.9,0.9c0.5-3.3,1.3-6.5,2.7-9.6c-2.2-0.6-4.4-1.2-6.5-1.8c0,3.1-0.3,6-1,9c2.2,0.6,4.5,1.2,6.8,1.9
				c0.7-3.7,1.7-7.2,3.3-10.6c-2.2-0.6-4.4-1.2-6.5-1.8c-0.7,5.5-2.1,10.8-3.9,16c2.2,0.6,4.5,1.2,6.8,1.9c0.8-5.1,1.9-10.1,3.3-15
				c-2.2-0.6-4.5-1.2-6.8-1.9c-1,6-2.2,11.9-3.7,17.8c2.3,0.3,4.6,0.6,6.9,0.9c0.4-3.8,0.8-7.7,1.2-11.5c-2.3,0-4.7,0-7,0
				c-0.3,4.8-0.7,9.5-1.2,14.2c2.3,0,4.7,0,7,0c0-3,0-6.1,0-9.1c0-4.6-6.7-4.4-7,0c-0.2,3.4-0.5,6.7-0.7,10.1c2.3,0,4.7,0,7,0
				c0-5.2-0.1-10.4-0.1-15.6c0-3.8-6.1-4.9-6.9-0.9c-1,4.9-1.7,9.9-2,14.9c2.3,0,4.7,0,7,0c0-2.8-0.1-5.5-0.1-8.3c-2.3,0-4.7,0-7,0
				c0.1,6-0.2,12-1.1,18c2.3,0.3,4.6,0.6,6.9,0.9c0-3.3,0.5-6.4,1.6-9.6c-2.3-0.3-4.6-0.6-6.9-0.9c0,5-0.1,9.9-0.4,14.9
				c2.3,0,4.7,0,7,0c-0.1-3.6,0.1-7.1,0.5-10.6c-2.3,0-4.7,0-7,0c0,5.4,0,10.8,0,16.1c2.3,0,4.7,0,7,0c0-4.1,0-8.2,0-12.2
				c-2.3,0-4.7,0-7,0c0.2,5.7,0.3,11.3,0.5,17c2.3,0,4.7,0,7,0c-0.2-3.3-0.4-6.7-0.6-10c-2.3,0-4.7,0-7,0c0.6,4.6,0.9,9.1,0.8,13.7
				c2.3,0,4.7,0,7,0c-0.4-3.2-0.7-6.5-0.8-9.8c-2.3,0-4.7,0-7,0c0.5,4,0.9,8,1.4,12.1c2.3-0.3,4.6-0.6,6.9-0.9
				c-0.3-2-0.6-3.9-0.9-5.9c-0.6-3.9-7.2-3-6.9,0.9c0.3,3.2,0.6,6.5,0.9,9.7c2.3-0.3,4.6-0.6,6.9-0.9c-0.4-2.5-0.7-5-0.9-7.6
				c-2.3,0-4.7,0-7,0c0.3,2.2,0.5,4.4,0.8,6.6c2.2-0.6,4.4-1.2,6.5-1.8c-0.8-1.4-1.7-2.7-2.5-4.1c-1.9-3.1-6.3-1.6-6.5,1.8
				c-0.3,4.8,1.9,8.7,6,11.2c3.2,2,6.2-1.8,4.8-4.8c-0.5-1.1-1-1.8-1.8-2.7c-2.5-3.1-7.7,1-5.5,4.2c1.6,2.3,3.3,4.5,5.2,6.5
				c1.6-1.6,3.3-3.3,4.9-5c-1.1-1.1-2.2-2.3-3.4-3.4c-1.4,1.8-2.8,3.7-4.2,5.5c1.6,1.1,3.1,2.2,4.7,3.2c0.9-2.1,1.8-4.3,2.7-6.4
				c-3.4-1-6.7-2.1-10-3.5c-4.1-1.7-7.7,4.3-3.5,6c3.8,1.6,7.7,3.1,11.7,4.2c4,1.2,5.9-4.2,2.7-6.4c-1.6-1.1-3.1-2.2-4.7-3.2
				c-3.3-2.3-7,2.7-4.2,5.5c1.1,1.1,2.2,2.3,3.4,3.4c3.2,3.2,8-1.6,4.9-5c-1.5-1.6-2.8-3.3-4.1-5.1c-1.8,1.4-3.7,2.8-5.5,4.2
				c0.2,0.4,0.5,0.9,0.7,1.3c1.6-1.6,3.2-3.2,4.8-4.8c-2-1.3-2.6-2.9-2.5-5.1c-2.2,0.6-4.4,1.2-6.5,1.8c0.8,1.4,1.7,2.7,2.5,4.1
				c1.7,2.7,7,1.9,6.5-1.8c-0.3-2.2-0.5-4.4-0.8-6.6c-0.5-4.4-7.3-4.6-7,0c0.2,3.2,0.6,6.3,1.2,9.5c0.7,3.9,7.2,3,6.9-0.9
				c-0.3-3.2-0.6-6.5-0.9-9.7c-2.3,0.3-4.6,0.6-6.9,0.9c0.3,2,0.6,3.9,0.9,5.9c0.6,3.9,7.3,3,6.9-0.9c-0.5-4-0.9-8-1.4-12.1
				c-0.5-4.4-7.2-4.6-7,0c0.1,3.3,0.4,6.5,0.8,9.8c0.6,4.3,7,4.6,7,0c0-4.6-0.2-9.1-0.8-13.7c-0.6-4.3-7.3-4.6-7,0
				c0.2,3.3,0.4,6.7,0.6,10c0.3,4.5,7.1,4.5,7,0c-0.2-5.7-0.3-11.3-0.5-17c-0.1-4.5-7-4.5-7,0c0,4.1,0,8.2,0,12.2c0,4.5,7,4.5,7,0
				c0-5.4,0-10.8,0-16.1c0-4.6-6.5-4.4-7,0c-0.4,3.5-0.6,7-0.5,10.6c0.1,4.5,6.8,4.5,7,0c0.2-5,0.4-9.9,0.4-14.9
				c0-4-5.7-4.6-6.9-0.9c-1.2,3.8-1.8,7.5-1.8,11.4c0,3.8,6.3,4.9,6.9,0.9c1-6.6,1.5-13.2,1.4-19.9c-0.1-4.5-7.1-4.5-7,0
				c0,2.8,0.1,5.5,0.1,8.3c0.1,4.5,6.7,4.5,7,0c0.3-4.4,0.8-8.7,1.7-13c-2.3-0.3-4.6-0.6-6.9-0.9c0,5.2,0.1,10.4,0.1,15.6
				c0,4.6,6.7,4.5,7,0c0.2-3.4,0.5-6.7,0.7-10.1c-2.3,0-4.7,0-7,0c0,3,0,6.1,0,9.1c0,4.6,6.5,4.4,7,0c0.5-4.7,0.9-9.5,1.2-14.2
				c0.3-4.6-6.5-4.4-7,0c-0.4,3.8-0.8,7.7-1.2,11.5c-0.4,3.9,5.9,4.7,6.9,0.9c1.4-5.9,2.7-11.8,3.7-17.8c0.7-4.4-5.5-6.3-6.8-1.9
				c-1.4,4.9-2.5,9.9-3.3,15c-0.7,4.4,5.2,6.2,6.8,1.9c2.1-5.8,3.4-11.8,4.2-17.9c0.4-3.4-5.1-4.8-6.5-1.8c-1.9,4-3.2,8-4,12.3
				c-0.8,4.4,5.8,6.3,6.8,1.9c0.8-3.6,1.2-7.2,1.2-10.9c0-3.2-5.1-5.1-6.5-1.8c-1.6,3.7-2.8,7.3-3.4,11.2c2.3,0.3,4.6,0.6,6.9,0.9
				c0.6-4.5,0.6-8.9,0.1-13.4c-0.3-3-5-5.4-6.5-1.8c-1.7,4.1-2.7,8.1-2.9,12.5c-0.2,4,5.8,4.6,6.9,0.9c1.1-3.6,1.5-7,1.2-10.7
				c-0.3-3.7-6.2-5.1-6.9-0.9c-0.7,4.2-1.1,8.4-0.9,12.7c0.1,4,5.7,4.7,6.9,0.9c1.4-4.3,2.7-8.6,4.1-12.9
				C38.6,93.3,31.8,91.4,30.5,95.7L30.5,95.7z"/>
		</g>
	</g>
</g>
<g id="женщина">
	<path class="st11" d="M132.6,80.5c2.1-4.2,18.1-34.2,50-37c30.2-2.6,53.1,20.9,63,40c11.8,22.8,10.2,49.6-1,70
		c-3.4,6.1-14.7,26.6-38,32c-17.3,4-32.1-2.8-39-6c-16-7.3-25-18.4-27-21C125.2,138.8,118.9,107.4,132.6,80.5z"/>
	<line class="st5" x1="-144.4" y1="-106.5" x2="-144.4" y2="-106.5"/>
	<path class="st5" d="M218.1,49"/>
	<path class="st5" d="M160.1,43"/>
	<g id="XMLID_00000011751578997168776470000011959726299569364388_">
		<g>
			<path d="M236.1,66c0,1-4.5,0.2-10,3c-6.4,3.3-5.8,7.2-11,9c-5.6,1.9-7.9-1.9-13,0c-5.3,2-3.9,7.3-9,10c-6.6,3.4-12.7-4.4-19-1
				c-4.9,2.6-3.8,8.5-9,10c-3.3,0.9-4.6-1-9,0c-0.6,0.1-5,1.2-8,5c-4.7,6-2.3,14.1-2,15c2.6,8.2,9,7.6,11,15c2,7.4-3.6,10.1-1,16
				c2.7,6,9.5,5.1,13,13c1.7,3.9,1.1,6.5,1,7c-0.7,2.8-2.6,4.3-6,7c-11.6,9.3-15.2,13.5-18,12c-0.2-0.1-0.4-0.2-0.5-0.4
				c-1.3-1.2-1.6-4.5-2.5-19.6c-0.9-16.1-0.7-15.5-1-17c-2.8-15.1-11.7-15.3-13-27c-1.3-12,6.8-22.7,10-27c1.6-2.2,4.4-5.7,9-9
				c2.1-1.5,3.3-2,9-5c3.7-2,7.6-4,11-6c10.9-6.3,10.3-8.1,16-10c5-1.7,5-0.1,13-2c8.8-2.1,9.1-4,14-4c5,0,5.2,2.1,14,4
				C231.6,65.4,236.1,65.3,236.1,66z"/>
		</g>
		<g>
			<path class="st5" d="M236.1,66c0,1-4.5,0.2-10,3c-6.4,3.3-5.8,7.2-11,9c-5.6,1.9-7.9-1.9-13,0c-5.3,2-3.9,7.3-9,10
				c-6.6,3.4-12.7-4.4-19-1c-4.9,2.6-3.8,8.5-9,10c-3.3,0.9-4.6-1-9,0c-0.6,0.1-5,1.2-8,5c-4.7,6-2.3,14.1-2,15c2.6,8.2,9,7.6,11,15
				c2,7.4-3.6,10.1-1,16c2.7,6,9.5,5.1,13,13c1.7,3.9,1.1,6.5,1,7c-0.7,2.8-2.6,4.3-6,7c-11.6,9.3-15.2,13.5-18,12
				c-0.2-0.1-0.4-0.2-0.5-0.4c-1.3-1.2-1.6-4.5-2.5-19.6c-0.9-16.1-0.7-15.5-1-17c-2.8-15.1-11.7-15.3-13-27c-1.3-12,6.8-22.7,10-27
				c1.6-2.2,4.4-5.7,9-9c2.1-1.5,3.3-2,9-5c3.7-2,7.6-4,11-6c10.9-6.3,10.3-8.1,16-10c5-1.7,5-0.1,13-2c8.8-2.1,9.1-4,14-4
				c5,0,5.2,2.1,14,4C231.6,65.4,236.1,65.3,236.1,66z"/>
		</g>
	</g>
	<path class="st12" d="M194,128.9c0.2,0.1-0.1,2.6-1,5c-0.7,1.9-1.2,2.3-1,3c0.7,2.2,7,1.6,7,2c0,0.4-5.2,2.1-7,0
		C189.7,136.3,193.7,128.8,194,128.9z"/>
	<path class="st13" d="M184.1,155.6c0.2-0.2,2.7,4.5,7.6,6c4.7,1.4,10.8-0.3,13-4c1.2-2.1,1.2-4.8,1.4-4.8c0.1,0,0.1,1.4-0.4,2.8
		c-1.4,4.2-6.2,5.7-7,6c-0.7,0.2-5.5,1.7-10-1C185.4,158.7,183.9,155.7,184.1,155.6z"/>
	<g>
		<g>
			<path d="M171.1,118.2c4.5,0,4.5-7,0-7C166.6,111.2,166.6,118.2,171.1,118.2L171.1,118.2z"/>
		</g>
	</g>
	<g>
		<g>
			<path d="M212.3,115.6c4.5,0,4.5-7,0-7S207.8,115.6,212.3,115.6L212.3,115.6z"/>
		</g>
	</g>
	<path class="st13" d="M272.6,156.5"/>
	<g>
		<g>
			<path d="M171.9,73.9c0.2,0.2,0.3,0.3,0.5,0.5c1.1,1.2,2.5,2.1,4,2.6c1.5,0.8,3.1,1.1,4.8,1.1c1.7,0.1,3.3-0.3,4.8-1.1
				c1.5-0.5,2.9-1.4,4-2.6c0.6-0.8,1.3-1.7,2-2.5c1.1-1.9,1.7-4.1,1.7-6.3c-0.1-1.1-0.3-2.2-0.5-3.3c-0.6-2.1-1.7-4-3.2-5.5
				c-0.2-0.2-0.3-0.3-0.5-0.5c-1.1-1.2-2.5-2.1-4-2.6c-1.5-0.8-3.1-1.1-4.8-1.1c-1.7-0.1-3.3,0.3-4.8,1.1c-1.5,0.5-2.9,1.4-4,2.6
				c-0.6,0.8-1.3,1.7-2,2.5c-1.1,1.9-1.7,4.1-1.7,6.3c0.1,1.1,0.3,2.2,0.5,3.3C169.2,70.5,170.3,72.3,171.9,73.9L171.9,73.9z"/>
		</g>
	</g>
	<g>
		<g>
			<path d="M187,83.5c16.1,0,16.1-25,0-25C170.9,58.5,170.9,83.5,187,83.5L187,83.5z"/>
		</g>
	</g>
	<g>
		<g>
			<path d="M208.7,73.9c16.1,0,16.1-25,0-25C192.6,48.9,192.6,73.9,208.7,73.9L208.7,73.9z"/>
		</g>
	</g>
	<g>
		<g>
			<path d="M198.6,73.9c16.1,0,16.1-25,0-25C182.5,48.9,182.5,73.9,198.6,73.9L198.6,73.9z"/>
		</g>
	</g>
	<g>
		<g>
			<path d="M219.8,67.1c7.1,0,7.1-11,0-11C212.7,56.1,212.7,67.1,219.8,67.1L219.8,67.1z"/>
		</g>
	</g>
	<g>
		<g>
			<path d="M222,67.4c7.1,0,7.1-11,0-11C214.9,56.4,214.9,67.4,222,67.4L222,67.4z"/>
		</g>
	</g>
	<g>
		<g>
			<path d="M211.9,64.1c0,0.1,0,0.2,0,0.2c0,0.8,0.1,1.5,0.5,2.1c0.2,0.7,0.6,1.3,1.1,1.8c0.5,0.5,1.1,0.9,1.8,1.1
				c0.7,0.3,1.4,0.5,2.1,0.5c0.5-0.1,1-0.1,1.5-0.2c0.9-0.3,1.7-0.7,2.4-1.4c0.3-0.4,0.6-0.7,0.9-1.1c0.5-0.9,0.8-1.8,0.8-2.8
				c0-0.1,0-0.2,0-0.2c0-0.8-0.1-1.5-0.5-2.1c-0.2-0.7-0.6-1.3-1.1-1.8c-0.5-0.5-1.1-0.9-1.8-1.1c-0.7-0.3-1.4-0.5-2.1-0.5
				c-0.5,0.1-1,0.1-1.5,0.2c-0.9,0.3-1.7,0.7-2.4,1.4c-0.3,0.4-0.6,0.7-0.9,1.1C212.2,62.1,211.9,63.1,211.9,64.1L211.9,64.1z"/>
		</g>
	</g>
	<g>
		<g>
			<path d="M204.2,46.7c-5.8-0.7-11.5-1.4-17.3-2.2c-5.6-0.7-10.3-1.1-15.6,1.2c-8.2,3.6-17.8,6.9-21.2,15.9
				c-2.5,6.6,8.1,9.5,10.6,2.9c1-2.6,4.8-4,7.1-5.1c3.4-1.6,7.2-4.1,10.9-4.5c3.8-0.5,8.2,0.7,12,1.2c4.5,0.6,9,1.1,13.4,1.7
				C211.2,58.6,211.1,47.6,204.2,46.7L204.2,46.7z"/>
		</g>
	</g>
	<g>
		<g>
			<path d="M173.5,55.5c-4.6,1.2-9.9,2-13.9,4.6c-4.2,2.8-6.5,8.2-9,12.4c-2.5,4.3,1.6,9.1,6.2,8.1c2.6-0.6,4.4-1.9,6.5-3.2
				c0.9-0.5,1.7-1.1,2.6-1.5c0.7-0.3,1.4-0.5,2.1-0.6c1.2-0.1,1-0.5-0.6-1.1c1.3-2.3,2.6-4.5,3.8-6.8c-4.1,0.6-7.9,2-11.6,4
				c-5.2,2.8-2.2,9.7,2.8,10.2c2.6,0.3,4.3-0.6,6.6-1.6c1.1-0.5,2.1-0.9,3.3-1.1c0.8-0.1,1.7-0.1,2.5-0.1c1.2,0.1,1.1-0.1-0.4-0.4
				c-0.5-1.8-0.9-3.6-1.4-5.4c2.2-1.4,2.6-1.9,1.1-1.6c-0.5,0.1-0.9,0.1-1.4,0.2c-1.1,0.2-2.2,0.5-3.2,0.9c-2.1,0.8-4.1,2-5.9,3.6
				c-1.5,1.4-2.8,3-3.8,4.8c-0.3,0.6-0.6,1.2-0.9,1.9c1.7,0.6,3.3,1.2,5,1.8c0.3-0.2,0.4-5.2,0.4-5.6c0.8-7-10.2-7-11,0
				c-0.7,6.2-1,16.5,8.3,15c7.2-1.2,6.3-10.1,13.3-11.6c3.1-0.7,6.1-0.7,7.9-3.9c1.6-2.7,1.1-6.4-1.3-8.6c-2.5-2.3-6.1-2.2-9.3-1.9
				c-1.6,0.1-3.2,0.3-4.7,0.8c-1.6,0.5-3.5,2-5.1,1.9c0.9,3.4,1.9,6.8,2.8,10.2c2.9-1.6,5.8-2.4,9-2.9c3.2-0.5,4.2-4.1,3.8-6.8
				c-0.7-5.1-5.6-7.4-10.3-7c-2.4,0.2-4.7,1-6.8,2c-2.4,1.1-4.6,3.3-7.2,3.9c2.1,2.7,4.1,5.4,6.2,8.1c1.6-2.8,3.5-7.6,6.4-9.2
				c2.8-1.5,6.9-2,9.9-2.8C183.3,64.3,180.4,53.7,173.5,55.5L173.5,55.5z"/>
		</g>
	</g>
	<g>
		<g>
			<path d="M150.2,61.7c-1.9,1.4-3.5,2.8-5,4.7c-1.4,1.8-2.9,2.9-4.4,4.6c-3.4,3.8-5.1,9.6-7.2,14.2c-1.8,4,0.4,7.9,4.8,8.3
				c3.8,0.4,6.7-1.6,9.8-3.6c3.2-2.1,6.5-4.1,9.9-6c-2.5-2.5-5-5-7.5-7.5c-0.9,1.8-1.9,3.2-3.2,4.6c-3.8,3.9,0,10.6,5.4,9.2
				c1.3-0.4,2.6-0.7,3.9-1.1c-2.1-2.7-4.1-5.4-6.2-8.1c-0.6,1.2-2.1,1.9-2.8,3.3c-0.8,1.6-1,3.2-0.4,4.9c1.2,3.5,4.5,4.9,7.9,4.1
				c5.9-1.4,4.8-11.5-1.5-10.8c-1.1,0.1-2.1,0.2-3.2,0.4c-7,0.8-7,11.8,0,11c1.1-0.1,2.1-0.2,3.2-0.4c-0.5-3.6-1-7.2-1.5-10.8
				c-0.2,0.1-0.4,0.1-0.6,0.1c1.4,0.2,2.8,0.4,4.2,0.6c-0.2-0.1-0.4-0.3-0.6-0.4c0.8,1.1,1.7,2.2,2.5,3.3c-0.1-0.2-0.1-0.5-0.2-0.7
				c-0.2,1.4-0.4,2.8-0.5,4.2c0.7-1.2,2.1-1.9,2.8-3.3c2.1-4.2-1.4-9.4-6.2-8.1c-1.3,0.4-2.6,0.7-3.9,1.1c1.8,3.1,3.6,6.1,5.4,9.2
				c2-2.1,3.6-4.3,5-6.9c2.4-4.8-2.6-10.4-7.5-7.5c-2.5,1.4-4.9,2.8-7.3,4.3c-1.8,1.1-4.7,3.9-6.9,3.8c1.6,2.8,3.2,5.5,4.8,8.3
				c1.7-3.8,3.1-8.7,5.6-12c1-1.4,2.5-2.2,3.6-3.5c1.1-1.4,1.9-2.9,3.4-4C161.4,67.1,155.9,57.5,150.2,61.7L150.2,61.7z"/>
		</g>
	</g>
	<g>
		<g>
			<path d="M147.7,96.6c7.1,0,7.1-11,0-11C140.6,85.6,140.6,96.6,147.7,96.6L147.7,96.6z"/>
		</g>
	</g>
	<g>
		<g>
			<path d="M143.6,99.9c0.1,0,0.2,0,0.2,0c0.8,0,1.5-0.1,2.1-0.5c0.7-0.2,1.3-0.6,1.8-1.1c0.5-0.5,0.9-1.1,1.1-1.8
				c0.3-0.7,0.5-1.4,0.5-2.1c-0.1-0.5-0.1-1-0.2-1.5c-0.3-0.9-0.7-1.7-1.4-2.4c-0.4-0.3-0.7-0.6-1.1-0.9c-0.9-0.5-1.8-0.8-2.8-0.8
				c-0.1,0-0.2,0-0.2,0c-0.8,0-1.5,0.1-2.1,0.5c-0.7,0.2-1.3,0.6-1.8,1.1c-0.5,0.5-0.9,1.1-1.1,1.8c-0.3,0.7-0.5,1.4-0.5,2.1
				c0.1,0.5,0.1,1,0.2,1.5c0.3,0.9,0.7,1.7,1.4,2.4c0.4,0.3,0.7,0.6,1.1,0.9C141.7,99.7,142.6,99.9,143.6,99.9L143.6,99.9z"/>
		</g>
	</g>
	<g>
		<g>
			<path d="M136.6,91.5c7.1,0,7.1-11,0-11C129.5,80.5,129.5,91.5,136.6,91.5L136.6,91.5z"/>
		</g>
	</g>
	<g>
		<g>
			<path d="M140,97.8c7.1,0,7.1-11,0-11C132.9,86.8,132.9,97.8,140,97.8L140,97.8z"/>
		</g>
	</g>
	<g>
		<g>
			<path d="M140.9,102.4c7.1,0,7.1-11,0-11C133.9,91.4,133.9,102.4,140.9,102.4L140.9,102.4z"/>
		</g>
	</g>
	<g>
		<g>
			<path d="M140.9,105.5c7.1,0,7.1-11,0-11C133.9,94.5,133.9,105.5,140.9,105.5L140.9,105.5z"/>
		</g>
	</g>
	<g>
		<g>
			<path d="M140.9,108.1c0.1,0,0.2,0,0.2,0c0.8,0,1.5-0.1,2.1-0.5c0.7-0.2,1.3-0.6,1.8-1.1c0.5-0.5,0.9-1.1,1.1-1.8
				c0.3-0.7,0.5-1.4,0.5-2.1c-0.1-0.5-0.1-1-0.2-1.5c-0.3-0.9-0.7-1.7-1.4-2.4c-0.4-0.3-0.7-0.6-1.1-0.9c-0.9-0.5-1.8-0.8-2.8-0.8
				c-0.1,0-0.2,0-0.2,0c-0.8,0-1.5,0.1-2.1,0.5c-0.7,0.2-1.3,0.6-1.8,1.1c-0.5,0.5-0.9,1.1-1.1,1.8c-0.3,0.7-0.5,1.4-0.5,2.1
				c0.1,0.5,0.1,1,0.2,1.5c0.3,0.9,0.7,1.7,1.4,2.4c0.4,0.3,0.7,0.6,1.1,0.9C139,107.9,140,108.1,140.9,108.1L140.9,108.1z"/>
		</g>
	</g>
	<g>
		<g>
			<path d="M153.7,167.7c0.2,0,0.3,0,0.5,0c0.8,0,1.5-0.1,2.1-0.5c0.7-0.2,1.3-0.6,1.8-1.1c0.5-0.5,0.9-1.1,1.1-1.8
				c0.3-0.7,0.5-1.4,0.5-2.1c-0.1-0.5-0.1-1-0.2-1.5c-0.3-0.9-0.7-1.7-1.4-2.4c-0.4-0.3-0.7-0.6-1.1-0.9c-0.9-0.5-1.8-0.8-2.8-0.8
				c-0.2,0-0.3,0-0.5,0c-0.8,0-1.5,0.1-2.1,0.5c-0.7,0.2-1.3,0.6-1.8,1.1c-0.5,0.5-0.9,1.1-1.1,1.8c-0.3,0.7-0.5,1.4-0.5,2.1
				c0.1,0.5,0.1,1,0.2,1.5c0.3,0.9,0.7,1.7,1.4,2.4c0.4,0.3,0.7,0.6,1.1,0.9C151.8,167.5,152.7,167.7,153.7,167.7L153.7,167.7z"/>
		</g>
	</g>
	<g>
		<g>
			<path d="M157.6,171.8c7.1,0,7.1-11,0-11C150.5,160.8,150.5,171.8,157.6,171.8L157.6,171.8z"/>
		</g>
	</g>
	<g>
		<g>
			<path d="M158.1,174.2c7.1,0,7.1-11,0-11C151,163.2,151,174.2,158.1,174.2L158.1,174.2z"/>
		</g>
	</g>
	<g>
		<g>
			<path d="M148.2,169.5c-1.4,2.6-2.8,5.3-5.8,6.3c1.1,1.5,2.3,2.9,3.4,4.4c1.4-2.7,2.9-5,4.9-7.3c2.6-2.9-1.4-6.8-4.2-4.2
				c-1.3,1.2-2.7,2.4-4,3.6c1.6,1.2,3.1,2.4,4.7,3.6c0.9-2.1,1.9-4.2,2.8-6.4c-1.8-0.8-3.7-1.5-5.5-2.3c-0.2,1-0.6,1.9-1.3,2.6
				c-1.4,2.1,0.5,4.3,2.6,4.5c2,0.2,4.3-0.9,5.2,1.4c1.6,3.7-4.8,5.2-6.9,5.8c-2.9,0.8-5.1,0.7-8.1,0.6c-3.3-0.1-6.2,0.7-9.5,0.1
				c0.2,1.8,0.5,3.7,0.7,5.5c7.3-3.4,13.3-10.5,18.6-16.3c-1.7-0.4-3.3-0.9-5-1.3c0.2,0.6-5,5.1-5.6,5.7c-2.7,2.5,0.7,6,3.6,4.7
				c2.6-1.2,5.3-2.4,7.9-3.6c-1-1.7-2-3.5-3-5.2c-2,1.4-4,2.7-6,4.1c-3.2,2.1-0.3,7.2,3,5.2c1.9-1.1,3.7-1.9,5.9-2.5
				c-0.8-1.8-1.5-3.7-2.3-5.5c-1.8,0.9-3.4,1.9-5,3c-2.6,1.8-1.1,6.7,2.3,5.5c3.2-1.1,6.4-2.2,9.6-3.4c-0.8-1.8-1.5-3.7-2.3-5.5
				c-3.1,2.3-6.1,4.7-9,7.3c-2.5,2.3,0.7,6.4,3.6,4.7c2.2-1.3,4.4-2.3,6.8-3.1c-0.8-1.8-1.5-3.7-2.3-5.5c-4,2.4-7.9,3.7-12.6,3.8
				c0.5,1.9,1,3.7,1.5,5.6c3.1-1.6,6.2-3,9.5-4.1c3.7-1.2,2.2-6.5-1.6-5.8c-2.8,0.5-5.6,1.1-8.3,1.9c0.5,1.9,1.1,3.9,1.6,5.8
				c2.5-1,4.9-1.9,7.4-2.7c-0.8-1.8-1.5-3.7-2.3-5.5c-1.8,0.9-3.6,1.8-5.4,2.7c1.2,1.6,2.4,3.1,3.6,4.7c1.8-1.9,3.7-3.2,6-4.4
				c3.5-1.7,0.4-6.9-3-5.2c-2.8,1.4-5.1,3.1-7.2,5.3c-2.4,2.5,0.6,6.2,3.6,4.7c1.8-0.9,3.6-1.8,5.4-2.7c3-1.5,0.9-6.5-2.3-5.5
				c-2.5,0.8-5,1.7-7.4,2.7c-3.5,1.4-2.2,6.8,1.6,5.8c2.8-0.7,5.5-1.4,8.3-1.9c-0.5-1.9-1.1-3.9-1.6-5.8c-3.8,1.3-7.4,2.8-10.9,4.7
				c-2.6,1.4-1.4,5.7,1.5,5.6c5.6-0.2,10.8-1.7,15.6-4.6c2.8-1.7,1-6.6-2.3-5.5c-2.9,1-5.5,2.2-8.2,3.7c1.2,1.6,2.4,3.1,3.6,4.7
				c2.5-2.3,5-4.4,7.8-6.4c2.5-1.8,1.1-6.7-2.3-5.5c-3.2,1.1-6.4,2.2-9.6,3.4c0.8,1.8,1.5,3.7,2.3,5.5c1.6-1.1,3.3-2.1,5-3
				c3.1-1.5,0.9-6.4-2.3-5.5c-2.6,0.7-5,1.7-7.3,3.1c1,1.7,2,3.5,3,5.2c2-1.4,4-2.7,6-4.1c3.2-2.2,0.5-6.8-3-5.2
				c-2.6,1.2-5.3,2.4-7.9,3.6c1.2,1.6,2.4,3.1,3.6,4.7c2.9-2.7,8.6-7,7.2-11.5c-0.7-2-3.4-3.1-5-1.3c-5,5.4-10.6,12.2-17.4,15.4
				c-2.3,1.1-1.8,5,0.7,5.5c3,0.6,5.6,0.4,8.7,0.2c2.8-0.2,5.5,0.5,8.3,0.1c4.4-0.7,9.9-2.2,13.1-5.4c3-2.9,2.9-7,1.2-10.6
				c-2.3-5-5.9-3.4-10.3-3.9c0.9,1.5,1.7,3,2.6,4.5c0.9-1.3,1.4-2.6,1.9-4.1c0.9-3.2-4.1-5.5-5.5-2.3c-0.9,2.1-1.9,4.2-2.8,6.4
				c-1.3,3,2,6,4.7,3.6c1.3-1.2,2.7-2.4,4-3.6c-1.4-1.4-2.8-2.8-4.2-4.2c-2.3,2.6-4.3,5.4-5.9,8.5c-1.1,2.2,0.8,5.2,3.4,4.4
				c4.6-1.4,7.1-4.9,9.4-9C155.2,169.1,150,166.1,148.2,169.5L148.2,169.5z"/>
		</g>
	</g>
	<line class="st14" x1="148.6" y1="14.5" x2="262.6" y2="88.5"/>
	<g>
		<line class="st9" x1="251.6" y1="174.5" x2="251.6" y2="88.5"/>
	</g>
	<path class="st9" d="M242.6,101.5"/>
	<g id="XMLID_00000095322964523008906070000006421531488684268171_">
		<g>
			<path d="M221.9,73.2c1,0,0.2,4.5,3,10c3.3,6.4,7.2,5.8,9,11c1.9,5.6-1.9,7.9,0,13c2,5.3,7.3,3.9,10,9c3.5,6.6-4.4,12.7-1,19
				c2.6,4.9,8.5,3.8,10,9c0.9,3.1,0.5,5.4,0,9c-0.8,5.2,0.1,4.6,0.3,19.8c0.5,33.7-3.6,30.2-2,44c0.1,1.1,0.7,4.2-1,7
				c-1.3,2.2-4.1,4.2-7,4c-4.4-0.3-7.8-5.6-8-10c-0.3-5.1,3.9-6.2,4-12c0.1-5.4-3.4-6-3-11c0.4-5.9,5.3-6.7,5-12
				c-0.2-3.6-2.6-4.1-3-9c-0.1-0.9-0.2-3.8,1-7c0.8-2.1,1.5-2.4,3.7-6.4c0.5-0.9,1.4-2.6,2.3-4.6c2-4.6,3-6.9,2.7-8.8
				c-0.8-5.5-7.4-5.2-10-11c-3-6.6,4-11.3,1-18c-2.4-5.4-7.8-4.2-10-10c-2-5.2,2-7.6,0-13c-2-5.7-7.2-5.3-9-11
				C218.2,79,220.7,73.2,221.9,73.2z"/>
		</g>
		<g>
			<path class="st5" d="M221.9,73.2c1,0,0.2,4.5,3,10c3.3,6.4,7.2,5.8,9,11c1.9,5.6-1.9,7.9,0,13c2,5.3,7.3,3.9,10,9
				c3.5,6.6-4.4,12.7-1,19c2.6,4.9,8.5,3.8,10,9c0.9,3.1,0.5,5.4,0,9c-0.8,5.2,0.1,4.6,0.3,19.8c0.5,33.7-3.6,30.2-2,44
				c0.1,1.1,0.7,4.2-1,7c-1.3,2.2-4.1,4.2-7,4c-4.4-0.3-7.8-5.6-8-10c-0.3-5.1,3.9-6.2,4-12c0.1-5.4-3.4-6-3-11
				c0.4-5.9,5.3-6.7,5-12c-0.2-3.6-2.6-4.1-3-9c-0.1-0.9-0.2-3.8,1-7c0.8-2.1,1.5-2.4,3.7-6.4c0.5-0.9,1.4-2.6,2.3-4.6
				c2-4.6,3-6.9,2.7-8.8c-0.8-5.5-7.4-5.2-10-11c-3-6.6,4-11.3,1-18c-2.4-5.4-7.8-4.2-10-10c-2-5.2,2-7.6,0-13c-2-5.7-7.2-5.3-9-11
				C218.2,79,220.7,73.2,221.9,73.2z"/>
		</g>
	</g>
	<g>
		<g>
			<path d="M226.3,77.4c0,2.6,0.5,4.8,1.7,7.2c2-1.2,4-2.4,6-3.5c-0.9-1.7-1.8-3.4-2.6-5.1c-1.9-3.7-7.1-1-6.4,2.7
				c0.3,1.6,0.7,2.9,1.2,4.4c2.2-0.6,4.5-1.2,6.8-1.9c-0.6-1.4-1.1-2.7-1.7-4.1c-2.1,0.9-4.3,1.8-6.4,2.7c1.5,3.2,3,6.3,4.5,9.5
				c1.7,3.6,7.4,1.1,6.4-2.7c-0.9-3.4-1.9-6.8-2.8-10.2c-2.1,0.9-4.3,1.8-6.4,2.7c1.7,3.6,3.4,7.1,5.1,10.7c2-1.2,4-2.4,6-3.5
				c-2.4-3.5-4.8-6.9-4.7-11.2c-2.3,0.3-4.6,0.6-6.9,0.9c1.9,4.7,4.3,8.9,7.6,12.8c2.3,2.8,6.7-0.2,5.9-3.4c-0.5-1.8-1-3.7-1.5-5.5
				c-2.2,0.6-4.5,1.2-6.8,1.9c1.6,4.6,3.3,9.1,4.9,13.7c1.3,3.5,7,3.2,6.9-0.9c-0.1-4.4-0.2-8.9-0.3-13.3c-2.3,0-4.7,0-7,0
				c0.5,5.1,1,10.1,1.5,15.2c0.4,4.4,6.8,4.6,7,0c0.1-2.9,0.2-5.9,0.3-8.8c-2.3,0.3-4.6,0.6-6.9,0.9c0.9,5.2,1.8,10.5,2.7,15.7
				c0.6,3.6,5.8,3.1,6.8,0c1.4-4.7,0.1-9.6,1.6-14.2c-2.3-0.3-4.6-0.6-6.9-0.9c0.2,4.1,0.2,8.1,0,12.2c-0.2,3.9,6.3,4.9,6.9,0.9
				c0.3-2.2,0.6-4.4,0.9-6.6c-2,0.5-3.9,1-5.9,1.5c1.4,1.4,1.4,6.9,1.6,8.7c2.3-0.3,4.6-0.6,6.9-0.9c-0.8-5.4-2.1-10.7-3.8-15.9
				c-1.1-3.4-5.6-3.2-6.8,0c-0.9,2.5-1.8,5-2.7,7.6c2-0.5,3.9-1,5.9-1.5c-3.6-4.1-4.4-9.5-9.3-12.6c-2.6-1.6-6,1.1-5.1,3.9
				c1.2,3.9,2.5,7.8,4,11.6c2.1-0.9,4.3-1.8,6.4-2.7c-1.2-2.5-2.6-4.8-4.3-7c-2.7-3.5-8.6-0.3-6,3.5c2.6,4,5.2,7.9,6.7,12.4
				c1.7-1.3,3.4-2.6,5.1-3.9c-0.9-0.6-1.6-1.4-2.2-2.4c-2.4-3.4-6.9-1.2-6.4,2.7c0.5,3.6,1.6,6.9,3.2,10.1c2-1.2,4-2.4,6-3.5
				c-0.7-1.2-1.5-2.4-2.2-3.5c-2.1-3.5-7.1-1.1-6.4,2.7c0.6,3.1,1.9,5.5,4,7.9c2.2,2.5,7.2-0.1,5.9-3.4c-0.7-1.7-1.5-3.4-2.4-5
				c-1.8,1.4-3.7,2.8-5.5,4.2c2.2,2.2,4.4,4.3,6.6,6.5c2.3,2.3,7.1,0,5.9-3.4c-1-2.7-1.8-5.4-2.4-8.3c-2.1,0.9-4.3,1.8-6.4,2.7
				c1.9,3.6,3.8,7.2,5.7,10.9c1.8,3.4,7.9,1,6.4-2.7c-1.4-3.4-2.5-6.7-3.3-10.3c-2.1,0.9-4.3,1.8-6.4,2.7c2.8,5.1,3.6,10.6,2.4,16.3
				c2-0.5,3.9-1,5.9-1.5c-0.3-1-0.7-2-1-3c-2.3,0-4.7,0-7,0c0.4,3.5,0.9,7,1.3,10.5c2.3-0.3,4.6-0.6,6.9-0.9c-0.3-0.9-0.6-1.8-1-2.6
				c-1.2-3.5-7.1-3.3-6.9,0.9c0.1,2.5,0.5,5,0.9,7.5c2.1-0.9,4.3-1.8,6.4-2.7c-0.1-0.3-0.2-0.5-0.3-0.8c-0.9-3.8-7.4-3-6.9,0.9
				c0.1,1,0.3,2,0.4,2.9c2.2-0.6,4.4-1.2,6.5-1.8c-0.2-0.3-0.3-0.5-0.5-0.8c-2.1-3.4-7.2-1.2-6.4,2.7c0.7,3.2,2.2,5.9,5.5,6.7
				c4.4,1.1,6.2-5.6,1.9-6.8c-0.4-0.6-0.6-1.2-0.6-1.9c-2.1,0.9-4.3,1.8-6.4,2.7c0.2,0.3,0.3,0.5,0.5,0.8c1.7,2.7,7,1.9,6.5-1.8
				c-0.1-1-0.3-2-0.4-2.9c-2.3,0.3-4.6,0.6-6.9,0.9c0.2,0.9,0.5,1.6,1,2.5c2,3.7,7.1,1,6.4-2.7c-0.4-1.9-0.6-3.7-0.7-5.6
				c-2.3,0.3-4.6,0.6-6.9,0.9c0.3,0.9,0.6,1.8,1,2.6c1.2,3.4,7.4,3.3,6.9-0.9c-0.4-3.5-0.9-7-1.3-10.5c-0.5-4.3-7.1-4.6-7,0
				c0.1,3.3,1,5.4,3.1,7.9c1.7,2,5.3,0.9,5.9-1.5c1.6-7.6,0.6-14.9-3.1-21.7c-1.9-3.6-7.3-1.1-6.4,2.7c0.8,3.5,1.9,6.9,3.3,10.3
				c2.1-0.9,4.3-1.8,6.4-2.7c-1.9-3.6-3.8-7.2-5.7-10.9c-1.9-3.7-7.1-1-6.4,2.7c0.6,2.9,1.3,5.6,2.4,8.3c2-1.1,3.9-2.3,5.9-3.4
				c-2.2-2.2-4.4-4.3-6.6-6.5c-2.9-2.8-7.4,0.8-5.5,4.2c0.6,1.1,1.2,2.2,1.7,3.3c2-1.1,3.9-2.3,5.9-3.4c-1.3-1.5-1.9-2.9-2.2-4.8
				c-2.1,0.9-4.3,1.8-6.4,2.7c0.7,1.2,1.5,2.4,2.2,3.5c2.4,3.9,8,0.5,6-3.5c-1.3-2.7-2.1-5.5-2.5-8.5c-2.1,0.9-4.3,1.8-6.4,2.7
				c1.4,2,2.8,3.4,4.7,4.9c2.5,1.9,6.1-1.2,5.1-3.9c-1.7-5.1-4.4-9.6-7.4-14.1c-2,1.2-4,2.4-6,3.5c1.7,2.2,3.1,4.5,4.3,7
				c1.7,3.5,7.8,1,6.4-2.7c-1.5-3.8-2.8-7.7-4-11.6c-1.7,1.3-3.4,2.6-5.1,3.9c3.8,2.4,5,8.2,7.9,11.5c1.9,2.1,5,0.7,5.9-1.5
				c0.9-2.5,1.8-5,2.7-7.6c-2.2,0-4.5,0-6.8,0c1.7,5.2,3,10.5,3.8,15.9c0.6,3.9,7.3,3,6.9-0.9c-0.5-4.5-0.4-10.2-3.7-13.6
				c-1.7-1.7-5.5-1.1-5.9,1.5c-0.3,2.2-0.6,4.4-0.9,6.6c2.3,0.3,4.6,0.6,6.9,0.9c0.2-4.1,0.2-8.1,0-12.2c-0.2-3.9-5.7-4.7-6.9-0.9
				c-1.5,4.7-0.1,9.6-1.6,14.2c2.2,0,4.5,0,6.8,0c-0.9-5.2-1.8-10.5-2.7-15.7c-0.7-4-6.8-2.9-6.9,0.9c-0.1,2.9-0.2,5.9-0.3,8.8
				c2.3,0,4.7,0,7,0c-0.5-5.1-1-10.1-1.5-15.2c-0.4-4.4-7.1-4.6-7,0c0.1,4.4,0.2,8.9,0.3,13.3c2.3-0.3,4.6-0.6,6.9-0.9
				c-1.6-4.6-3.3-9.1-4.9-13.7c-1.5-4.2-7.9-2.6-6.8,1.9c0.5,1.8,1,3.7,1.5,5.5c2-1.1,3.9-2.3,5.9-3.4c-2.4-2.9-4.3-6.1-5.8-9.7
				c-1.4-3.5-6.8-3.3-6.9,0.9c-0.1,5.7,2.5,10.2,5.7,14.8c2.6,3.7,8,0.5,6-3.5c-1.7-3.6-3.4-7.1-5.1-10.7c-1.7-3.6-7.4-1.1-6.4,2.7
				c0.9,3.4,1.9,6.8,2.8,10.2c2.1-0.9,4.3-1.8,6.4-2.7c-1.5-3.2-3-6.3-4.5-9.5c-1.7-3.5-7.9-1-6.4,2.7c0.6,1.4,1.1,2.7,1.7,4.1
				c1.7,4,8.3,2.5,6.8-1.9c-0.5-1.5-0.9-2.8-1.2-4.4c-2.1,0.9-4.3,1.8-6.4,2.7c0.9,1.7,1.8,3.4,2.6,5.1c2.1,4,8,0.5,6-3.5
				c-0.6-1.1-0.9-2.4-0.7-3.6C233.3,72.9,226.3,72.9,226.3,77.4L226.3,77.4z"/>
		</g>
	</g>
	<g>
		<g>
			<path d="M237.7,105.7c-0.2,0-0.5,0-0.7,0c-0.3,0-0.5,0.1-0.8,0.2c-0.2,0.1-0.5,0.2-0.6,0.4c-0.2,0.2-0.3,0.4-0.4,0.6
				c-0.1,0.2-0.2,0.5-0.2,0.8c0,0.2,0,0.4,0.1,0.5c0.1,0.3,0.3,0.6,0.5,0.9c0.1,0.1,0.3,0.2,0.4,0.3c0.3,0.2,0.6,0.3,1,0.3
				c0.2,0,0.5,0,0.7,0c0.3,0,0.5-0.1,0.8-0.2c0.2-0.1,0.5-0.2,0.6-0.4c0.2-0.2,0.3-0.4,0.4-0.6c0.1-0.2,0.2-0.5,0.2-0.8
				c0-0.2,0-0.4-0.1-0.5c-0.1-0.3-0.3-0.6-0.5-0.9c-0.1-0.1-0.3-0.2-0.4-0.3C238.4,105.8,238,105.7,237.7,105.7L237.7,105.7z"/>
		</g>
	</g>
	<g>
		<g>
			<path d="M224.7,74.3c-1.2,4.4-0.5,9.1,2.1,12.9c1.8-1.4,3.7-2.8,5.5-4.2c-2-2.3-3.1-5.2-3.4-8.2c-0.3-4.5-7.3-4.5-7,0
				c0.4,5,2.2,9.3,5.4,13.1c2.6,3,7.8-1,5.5-4.2c-1.6-2.3-2.1-4.8-1.4-7.5C232.6,71.8,225.8,69.9,224.7,74.3L224.7,74.3z"/>
		</g>
	</g>
	<g>
		<g>
			<path d="M232.1,105.1c0.5,0.7,0.7,0.9,1.4,1.4c0.1,0,0.1,0.1,0.2,0.1c0.3,0.1,0.6,0.3,1,0.4c0.4,0.1,0.8,0.2,1.2,0.2
				c0.3,0,0.7-0.1,1-0.1c0.1,0,0.1,0,0.2-0.1c0.5-0.1,0.9-0.3,1.2-0.6c0.4-0.2,0.7-0.6,0.9-1c0.3-0.4,0.4-0.8,0.4-1.3
				c0.1-0.5,0.1-0.9-0.1-1.4c-0.3-0.9-0.8-1.7-1.6-2.1c-0.3-0.1-0.6-0.2-0.8-0.4c-0.6-0.2-1.2-0.2-1.9,0c-0.1,0-0.1,0.1-0.2,0.1
				c0.3,0,0.6-0.1,0.9-0.1c-0.1,0-0.1,0-0.2,0c0.3,0,0.6,0.1,0.9,0.1c-0.1,0-0.2,0-0.3-0.1c0.3,0.1,0.6,0.2,0.8,0.4
				c-0.1,0-0.1-0.1-0.2-0.1c0.2,0.2,0.5,0.4,0.7,0.6c0,0-0.1-0.1-0.1-0.1c0.2,0.2,0.4,0.5,0.5,0.7c0,0,0,0,0-0.1
				c-0.2-0.4-0.5-0.7-0.9-1c-0.3-0.3-0.7-0.5-1.2-0.6c-0.5-0.1-0.9-0.2-1.4-0.1c-0.5,0-0.9,0.2-1.3,0.4c-0.8,0.5-1.4,1.2-1.6,2.1
				c0,0.3-0.1,0.6-0.1,0.9C231.6,104,231.8,104.6,232.1,105.1L232.1,105.1z"/>
		</g>
	</g>
	<g>
		<g>
			<path d="M245.3,128.8c-0.3,0-0.6,0-1,0c0.8,2,1.6,4,2.5,6c0.2-0.2,0.4-0.5,0.6-0.7c0.3-0.3,0.6-0.7,0.7-1.1
				c0.2-0.4,0.3-0.9,0.3-1.4c0-0.5-0.1-0.9-0.3-1.4c-0.1-0.4-0.4-0.8-0.7-1.1c-0.7-0.6-1.5-1.1-2.5-1c-0.3,0-0.6,0.1-0.9,0.1
				c-0.6,0.2-1.1,0.5-1.5,0.9c-0.2,0.2-0.4,0.5-0.6,0.7c-0.2,0.2-0.4,0.5-0.5,0.7c-0.1,0.3-0.2,0.6-0.4,0.8c0,0.3-0.1,0.6-0.1,0.9
				c0,0.5,0.1,0.9,0.3,1.4c0.1,0.3,0.2,0.6,0.5,0.8c0.2,0.3,0.4,0.5,0.6,0.6c0.2,0.2,0.5,0.4,0.8,0.4c0.4,0.2,0.9,0.3,1.4,0.3
				c0.3,0,0.6,0,1,0c0.9,0,1.8-0.4,2.5-1c0.3-0.3,0.6-0.7,0.7-1.1c0.2-0.4,0.3-0.9,0.3-1.4c0-0.3-0.1-0.6-0.1-0.9
				c-0.2-0.6-0.5-1.1-0.9-1.5C247.1,129.2,246.2,128.8,245.3,128.8L245.3,128.8z"/>
		</g>
	</g>
	<path class="st10" d="M157.1,157"/>
	<path class="st10" d="M238.1,184"/>
	<path class="st10" d="M239.1,190"/>
</g>
<g id="котик2">
	<path class="st15" d="M36.6,149.5c-2.1-8.4-1.3-15.7-1-18c0.1-1.2,0.4-2.8,1-6c1.2-6.5,2.3-12.1,3-15c4-17.6,6-26.4,10-27
		c3.7-0.5,4.6,6.3,14,12c6.1,3.6,11.9,4.6,15,5c7.3,1.1,12.9,0,17.1-0.8c5.2-1,10-1.9,15-5c9.5-5.9,10-13.3,14-13
		c3.6,0.3,4.8,5.8,13,24c5.8,12.8,6.7,13.5,8.4,19.3c1.8,6.1,3.8,13,3,22c-0.3,3.4-1,11.6-6.4,19.7c-6.2,9.5-15,13.5-20.1,15.8
		c-11.1,5-20.8,5-29,5c-7.4,0-15.1,0-24.5-3.5c-13-4.9-20.5-13.2-22-15C44.7,166.3,39.2,159.7,36.6,149.5z"/>
	<path class="st13" d="M146.6,100.5"/>
	<path class="st10" d="M83.1,140.9c0.5-0.8,1.6-1.3,2.5-1.2s1.2,1,2.5,1.2c0.2,0,0.7,0.1,1.2,0c1.3-0.2,1.6-1,2.5-1.2
		c0.9-0.1,2.1,0.4,2.5,1.2c0.9,1.6-1.4,4.3-2.6,5.7c-0.9,1-2.4,2.6-2.4,2.6l0,0c0,0-2.4-1.2-3.9-2.6
		C83.9,145.2,82.1,142.4,83.1,140.9z"/>
	<g>
		<g>
			<path d="M68.7,129c4.5,0,4.5-7,0-7C64.2,122,64.1,129,68.7,129L68.7,129z"/>
		</g>
	</g>
	<g>
		<g>
			<path d="M108.7,129c4.5,0,4.5-7,0-7C104.2,122,104.1,129,108.7,129L108.7,129z"/>
		</g>
	</g>
	<path class="st13" d="M77,153.5c0-0.9,0-2,0-2C77,151.4,76.6,152.6,77,153.5c0.8,1.6,4.4,2.1,7,1c2.7-1.1,3.9-3.7,4-3.9
		c0.7-1.6,0.7-3,1-3s0.3,1.5,1,3c1.4,3,4.8,4,5,4c1.9,0.5,5,0.6,6-1c0.7-1.2,0.1-3.1,0-3.1c-0.1,0,0,1,0,2"/>
	<g>
		<g>
			<path class="st8" d="M37.4,260.1c-0.5-0.1-1.3,0.1-1.7,0.4c-0.4,0.3-0.7,0.5-1,0.9c-0.5,0.7-0.8,1.5-0.8,2.4c0,1,0.3,2.1,0.6,3.1
				c0.6,1.9,1.3,3.7,2.3,5.4c0.4,0.6,1.1,1.2,1.8,1.4c0.7,0.2,1.7,0.1,2.3-0.3c1.4-0.9,1.9-2.6,1.1-4.1c-0.5-0.8-0.9-1.6-1.2-2.5
				c0.1,0.2,0.2,0.5,0.3,0.7c-0.6-1.4-1.1-2.8-1.3-4.3c0,0.3,0.1,0.5,0.1,0.8c0-0.1,0-0.2,0-0.4c0,0.3-0.1,0.5-0.1,0.8
				c0-0.1,0-0.2,0.1-0.3c-0.1,0.2-0.2,0.5-0.3,0.7c0,0,0-0.1,0.1-0.1c-0.2,0.2-0.3,0.4-0.5,0.6c0,0,0.1-0.1,0.1-0.1
				c-0.2,0.2-0.4,0.3-0.6,0.5c0,0,0,0,0.1,0c-0.2,0.1-0.5,0.2-0.7,0.3c0,0,0,0,0.1,0c-0.3,0-0.5,0.1-0.8,0.1c0.1,0,0.1,0,0.1,0
				c0.7,0.1,1.6-0.4,2.1-0.9c0.5-0.5,0.9-1.4,0.9-2.1c0-0.8-0.3-1.6-0.9-2.1c-0.2-0.2-0.4-0.3-0.6-0.5
				C38.4,260.2,37.9,260.1,37.4,260.1L37.4,260.1z"/>
		</g>
	</g>
	<g>
		<g>
			<path class="st8" d="M33.5,262.3c-2.1,3-2.1,7.6,0,10.7c0.8,1.1,2.1,1.8,3.4,1.4c1.1-0.4,2.4-1.6,2.2-2.9
				c-0.3-2.3-0.7-4.5-1.3-6.7c-0.4-1.4-1.8-2.4-3.3-2.1c-1.5,0.2-2.5,1.4-2.6,3c-0.1,2.7-0.1,5.4,0.2,8.1c0.1,0.8,0.3,1.5,0.9,2.1
				c0.5,0.5,1.4,0.9,2.1,0.9c1.6-0.1,3.1-1.3,3-3c-0.1-2.3-0.2-4.6-0.3-7c-0.1-1.6-1.3-3.1-3-3c-1.7,0.1-2.9,1.3-3,3
				c-0.1,2.1,0.1,4.2,0.4,6.3c0.1,0.7,0.8,1.5,1.4,1.8c0.6,0.3,1.2,0.5,1.9,0.4c1.5-0.2,2.6-1.4,2.6-3c0-2.3-0.1-4.6-0.3-6.9
				c-0.1-0.8-0.3-1.5-0.9-2.1c-0.5-0.5-1.4-0.9-2.1-0.9c-1.6,0.1-3.1,1.3-3,3c0.1,2.1,0.1,4.2,0.2,6.2c2,0,4,0,6,0
				c-0.1-2-0.3-4-0.4-6c-2,0.3-3.9,0.5-5.9,0.8c0.4,2.4,0.9,4.8,1.7,7.1c0.4,1.4,1.8,2.4,3.3,2.1c1.4-0.2,2.6-1.5,2.6-3
				c-0.1-2.5-0.1-5.1-0.2-7.6c-2,0-4,0-6,0c0.4,3.3,0.9,6.6,1.5,9.8c1.9-0.5,3.9-1.1,5.8-1.6c-0.1-0.5-0.3-1.1-0.4-1.6
				c-0.1-0.3-0.1-0.6-0.2-1c0-0.2-0.1-0.3-0.1-0.5c0.1,0.4,0.1,0.4,0,0.2c-0.1-1.2-0.2-2.3-0.2-3.5c-2,0.3-3.9,0.5-5.9,0.8
				c0.6,2.6,1.3,5.2,1.9,7.8c0.4,1.5,1.9,2.3,3.3,2.1s2.6-1.5,2.6-3c-0.1-3.3-0.4-6.5-0.9-9.8c-0.1-0.7-0.8-1.5-1.4-1.8
				c-0.6-0.4-1.6-0.5-2.3-0.3c-0.7,0.2-1.4,0.7-1.8,1.4c-0.4,0.8-0.4,1.5-0.3,2.3c0.4,3.1,0.9,6.2,1.4,9.3c0.1,0.7,0.8,1.5,1.4,1.8
				c0.6,0.3,1.2,0.5,1.9,0.4c1.3-0.2,2.8-1.5,2.6-3c-0.4-3.1-0.8-6.2-1.2-9.2c-2,0.3-3.9,0.5-5.9,0.8c0.8,2.5,1.6,4.9,2.4,7.4
				c0.8,2.4,1.4,5.5,3.9,6.7c1.1,0.5,2.3,0.5,3.3-0.2c0.9-0.7,1.4-2,1.1-3.1c-1.2-3.7-2.4-7.4-3.5-11.1c-1.9,0.5-3.9,1.1-5.8,1.6
				c1.7,4.4,3.5,8.7,6.8,12.2c1,1.1,2.8,1.1,3.9,0.2c1.1-0.9,1.6-2.6,0.8-3.9c-0.9-1.3-1.8-2.7-2.5-4.1c-0.2-0.3-0.3-0.6-0.5-1
				c-0.1-0.2-0.2-0.4-0.3-0.6c-0.3-0.6,0.2,0.5,0-0.1c-0.3-0.8-0.5-1.5-0.7-2.3c-1.8,0.8-3.7,1.5-5.5,2.3c2.4,3.9,5.6,7.2,9.3,9.9
				c0.5-1.9,1-3.7,1.5-5.6c-0.2,0-0.8-0.1,0,0.1c-0.1,0-0.1,0-0.2-0.1c0.3,0.1,0.5,0.2,0.7,0.4c-0.6-0.5-1.3-0.9-2.1-0.9
				c-0.7,0-1.6,0.3-2.1,0.9c-1,1.1-1.3,3.2,0,4.2c1.1,0.9,2.3,1.5,3.7,1.4c1.3-0.1,2.6-0.9,2.9-2.2c0.3-1.4-0.3-2.6-1.4-3.4
				c-0.1-0.1-0.2-0.2-0.3-0.2c-0.3-0.2-0.2-0.2,0.1,0.1c-0.1-0.1-0.4-0.3-0.5-0.4c-0.4-0.3-0.8-0.6-1.1-1c-0.7-0.6-1.4-1.3-2-2
				c-0.3-0.3-0.6-0.7-0.9-1c-0.2-0.2-0.4-0.4-0.5-0.7c-0.1-0.1-0.6-0.6-0.1-0.1c-0.7-0.7-1.2-1.6-1.7-2.5c-0.8-1.3-2.4-1.8-3.8-1.2
				s-2.1,2.1-1.7,3.5c0.8,3.5,2.7,6.5,4.7,9.5c1.6-1.2,3.1-2.4,4.7-3.6c-0.3-0.4-0.7-0.7-1-1.1c-0.2-0.3-0.2-0.2,0.1,0.1
				c-0.1-0.1-0.2-0.2-0.2-0.3c-0.1-0.2-0.2-0.3-0.4-0.5c-0.6-0.8-1.1-1.7-1.5-2.6c-0.4-0.9-0.9-1.8-1.3-2.7
				c-0.1-0.2-0.1-0.1,0.1,0.2c-0.1-0.1-0.1-0.3-0.2-0.4c-0.1-0.2-0.2-0.5-0.3-0.7c-0.2-0.5-0.4-1-0.6-1.5c-0.3-0.8-0.7-1.4-1.4-1.8
				c-0.6-0.4-1.6-0.5-2.3-0.3c-1.5,0.5-2.6,2.1-2.1,3.7c1.2,3.7,2.4,7.4,3.5,11.1c1.5-1.1,2.9-2.3,4.4-3.4c-0.1,0-0.2-0.1-0.3-0.2
				c0.4,0.3,0.5,0.4,0.2,0.1c-0.4-0.4,0.3,0.5,0.1,0.1c-0.1-0.1-0.1-0.2-0.2-0.3c-0.1-0.3-0.1-0.2,0.1,0.2c0-0.2-0.1-0.3-0.2-0.5
				c-0.4-1.1-0.7-2.2-1.1-3.3c-0.7-2.2-1.5-4.5-2.2-6.7c-0.5-1.4-1.8-2.4-3.3-2.1c-1.3,0.2-2.8,1.5-2.6,3c0.4,3.1,0.8,6.2,1.2,9.2
				c2-0.3,3.9-0.5,5.9-0.8c-0.4-3.1-0.9-6.2-1.4-9.3c-1.9,0.5-3.9,1.1-5.8,1.6c0.1,0.4,0.1,0.7,0.2,1.1c0,0.1,0.1,0.6,0,0.2
				c-0.1-0.5,0,0.2,0,0.3c0.1,0.7,0.2,1.5,0.2,2.2c0.1,1.5,0.2,2.9,0.2,4.4c2-0.3,3.9-0.5,5.9-0.8c-0.6-2.6-1.3-5.2-1.9-7.8
				c-0.4-1.5-1.9-2.3-3.3-2.1c-1.4,0.2-2.6,1.4-2.6,3c0,2.7,0.4,5.3,1,7.9c0.4,1.5,2.2,2.6,3.7,2.1c1.6-0.5,2.4-2,2.1-3.7
				c-0.3-1.5-0.5-2.9-0.8-4.4c-0.1-0.7-0.2-1.4-0.3-2.1c-0.1-0.4-0.1-0.7-0.1-1.1c0.1,0.4,0,0.3,0-0.1c0-0.2-0.1-0.4-0.1-0.6
				c-0.1-0.8-0.3-1.5-0.9-2.1c-0.5-0.5-1.4-0.9-2.1-0.9c-1.6,0.1-3.1,1.3-3,3c0.1,2.5,0.1,5.1,0.2,7.6c2-0.3,3.9-0.5,5.9-0.8
				c-0.7-2.3-1.3-4.7-1.7-7.1c-0.1-0.7-0.8-1.5-1.4-1.8c-0.6-0.3-1.2-0.5-1.9-0.4c-1.4,0.2-2.7,1.5-2.6,3c0.1,2,0.3,4,0.4,6
				c0.1,1.6,1.3,3.1,3,3c1.6-0.1,3.1-1.3,3-3c-0.1-2.1-0.1-4.2-0.2-6.2c-2,0-4,0-6,0c0.2,2.3,0.3,4.6,0.3,6.9c2-0.3,3.9-0.5,5.9-0.8
				c0.1,0.8,0,0,0-0.2c0-0.2,0-0.4-0.1-0.6c0-0.4-0.1-0.9-0.1-1.3c0-0.9,0-1.8,0-2.6c-2,0-4,0-6,0c0.1,2.3,0.2,4.6,0.3,7
				c2,0,4,0,6,0c-0.3-2.7-0.4-5.4-0.2-8.1c-2,0.3-3.9,0.5-5.9,0.8c0.3,0.9,0.5,1.9,0.7,2.8c0.1,0.5,0.2,1,0.3,1.4
				c0,0.2,0.1,0.4,0.1,0.6c0,0.2,0,0.2,0-0.2c0,0.2,0,0.3,0.1,0.5c1.9-0.5,3.7-1,5.6-1.5c-0.2-0.2-0.3-0.5-0.5-0.8
				c-0.1-0.1-0.4-0.5-0.1-0.1c0.3,0.4,0,0,0-0.2c-0.1-0.3-0.1-0.6-0.2-0.9c0.1,0.2,0.1,0.7,0,0.1c0-0.1,0-0.3,0-0.5
				c0-0.1,0-0.2,0-0.4c0-0.3,0.2-0.6,0,0.1c0.1-0.3,0.1-0.5,0.2-0.8c0-0.1,0.1-0.3,0.1-0.4c0.2-0.6-0.2,0.4-0.1,0.1
				c0.2-0.3,0.3-0.6,0.5-0.9c0.9-1.3,0.3-3.4-1.1-4.1C36,260.4,34.4,260.9,33.5,262.3L33.5,262.3z"/>
		</g>
	</g>
	<g>
		<g>
			<path class="st8" d="M44.8,267.4c0-0.9,0.1-1.8,0.1-2.7c-1.7,0.7-3.4,1.4-5.1,2.1c1.9,2.4,3.8,4.8,5.7,7.2
				c1.4-1.4,2.8-2.8,4.2-4.2c-0.5-0.6-1.1-1.2-1.6-1.9c0.2,0.2,0.3,0.4,0.5,0.6c-1.3-1.7-2.4-3.5-3.4-5.3c-0.7-1.4-2.8-1.9-4.1-1.1
				c-1.4,0.9-1.9,2.6-1.1,4.1c1.5,2.8,3.4,5.4,5.5,7.8c0.5,0.5,1.4,0.9,2.1,0.9c0.7,0,1.6-0.3,2.1-0.9c0.5-0.6,0.9-1.3,0.9-2.1
				c0-0.3-0.1-0.5-0.1-0.8c-0.1-0.5-0.4-1-0.8-1.3c-1.9-2.4-3.8-4.8-5.7-7.2c-0.2-0.2-0.4-0.3-0.6-0.5c-0.2-0.1-0.5-0.2-0.7-0.3
				c-0.6-0.2-1.3-0.1-1.9,0.1c-1.1,0.5-1.8,1.5-1.8,2.7c0,0.9-0.1,1.8-0.1,2.7c-0.1,1.6,1.4,3.1,3,3
				C43.5,270.3,44.7,269.1,44.8,267.4L44.8,267.4z"/>
		</g>
	</g>
	<g>
		<g>
			<path class="st8" d="M38.8,260.9c0.1,1.7,0.5,3.3,1.3,4.8c0.6,1.1,2.2,1.8,3.4,1.4c0.5-0.2,0.9-0.4,1.3-0.8
				c0.6-0.6,0.8-1.3,0.9-2.1c0.1-1.2,0.1-2.4-0.1-3.5c-0.1-0.7-0.2-1.5-0.3-2.2c0-0.2-0.1-0.5-0.1-0.7c-0.1-0.3-0.1-0.3,0,0.1
				c0-0.1,0-0.3,0-0.4c-0.1-0.5-0.1-0.9-0.1-1.4c0-0.3,0-0.5,0-0.8c0-0.1,0-0.1,0-0.2c0-0.3,0-0.3,0,0.2c0.1-0.1,0.1-0.6,0.1-0.8
				c0.1-0.2,0.1-0.4,0.2-0.5c0.1-0.3,0.1-0.2-0.1,0.2c0.1-0.1,0.1-0.2,0.2-0.3c0.1-0.2,0.3-0.4,0.4-0.6c0.4-0.6,0.5-1.7,0.3-2.3
				c-0.2-0.6-0.6-1.1-1.1-1.6c-1.1-0.8-3-0.9-3.9,0.2c-0.5,0.6-0.9,1.1-1.1,1.8c-0.2,0.7-0.1,1.4,0,2.2c0.1,0.7,0.8,1.5,1.4,1.8
				c0.6,0.4,1.6,0.5,2.3,0.3c0.7-0.2,1.4-0.7,1.8-1.4c0.4-0.8,0.4-1.5,0.3-2.3c0.2,0.7,0,1.3-0.5,1.9c-1.6-1.2-3.1-2.4-4.7-3.6
				c-1.4,1.9-1.8,4.6-1.6,6.9c0.1,1.3,0.3,2.6,0.5,4c0.1,0.3,0.1,0.3,0-0.1c0,0.2,0,0.3,0.1,0.5c0,0.3,0.1,0.6,0.1,1
				c0,0.6,0,1.3-0.1,1.9c1.9-0.5,3.7-1,5.6-1.5c-0.1-0.3-0.1-0.3,0,0.1c-0.1-0.1-0.1-0.3-0.1-0.4c-0.1-0.2-0.1-0.4-0.2-0.6
				c-0.1-0.2-0.1-0.4-0.1-0.6c-0.1-0.3-0.1-0.3,0,0.2c0-0.1,0-0.3,0-0.4c-0.1-1.6-1.3-3.1-3-3C40.3,257.9,38.7,259.2,38.8,260.9
				L38.8,260.9z"/>
		</g>
	</g>
	<g>
		<g>
			<path class="st8" d="M43.3,248.2c-1.5,1.9-1.9,4.4-2.2,6.7c-0.4,2.7-0.7,5.3-1.1,8c-0.1,0.8-0.1,1.5,0.3,2.3
				c0.4,0.6,1.1,1.2,1.8,1.4c1.4,0.3,3.5-0.4,3.7-2.1c0.4-2.6,0.7-5.2,1.1-7.8c0.1-1.1,0.3-2.1,0.5-3.2c0.1-0.3,0.1-0.5,0.2-0.8
				c0-0.1,0.1-0.2,0.1-0.4c0.1-0.3,0.1-0.2-0.1,0.2c-0.1-0.1,0.7-1.2,0.8-1.4c0.4-0.6,0.5-1.6,0.3-2.3c-0.2-0.7-0.7-1.5-1.4-1.8
				c-0.7-0.4-1.5-0.5-2.3-0.3C44.3,247.1,43.8,247.6,43.3,248.2L43.3,248.2z"/>
		</g>
	</g>
	<g>
		<g>
			<path class="st8" d="M67.6,235.7c0.1,0,0.2,0,0.2,0c0.5,0,0.9-0.1,1.4-0.3c0.4-0.1,0.8-0.4,1.1-0.7c0.3-0.3,0.6-0.7,0.7-1.1
				c0.2-0.4,0.3-0.9,0.3-1.4c0-0.3-0.1-0.6-0.1-0.9c-0.2-0.6-0.5-1.1-0.9-1.5c-0.2-0.2-0.5-0.4-0.7-0.5c-0.6-0.3-1.1-0.5-1.8-0.5
				c-0.1,0-0.2,0-0.2,0c-0.5,0-0.9,0.1-1.4,0.3c-0.4,0.1-0.8,0.4-1.1,0.7c-0.3,0.3-0.6,0.7-0.7,1.1c-0.2,0.4-0.3,0.9-0.3,1.4
				c0,0.3,0.1,0.6,0.1,0.9c0.2,0.6,0.5,1.1,0.9,1.5c0.2,0.2,0.5,0.4,0.7,0.5C66.4,235.5,67,235.7,67.6,235.7L67.6,235.7z"/>
		</g>
	</g>
	<line class="st16" x1="31.6" y1="288.5" x2="60.6" y2="288.5"/>
	<g>
		<g>
			<path class="st8" d="M71,218.5C71,218.5,71,218.5,71,218.5c0,0.6,0.1,1.1,0.3,1.6c0.2,0.5,0.4,0.9,0.8,1.3
				c0.4,0.4,0.8,0.7,1.3,0.8c0.5,0.2,1,0.4,1.5,0.3c0.4,0,0.7-0.1,1.1-0.1c0.7-0.2,1.3-0.5,1.8-1c0.2-0.3,0.4-0.5,0.6-0.8
				c0.4-0.6,0.5-1.3,0.6-2c0,0,0,0,0-0.1c0-0.5-0.1-1.1-0.3-1.5c-0.2-0.5-0.4-0.9-0.8-1.3c-0.4-0.4-0.8-0.7-1.3-0.8
				c-0.5-0.2-1-0.4-1.5-0.3c-0.4,0-0.7,0.1-1.1,0.1c-0.7,0.2-1.3,0.5-1.8,1c-0.2,0.3-0.4,0.5-0.6,0.8C71.2,217.1,71,217.8,71,218.5
				L71,218.5z"/>
		</g>
	</g>
	<g>
		<g>
			<path class="st8" d="M71.7,218.3c-0.1,0.9-0.2,1.8-0.4,2.7c2.7,0,5.3,0,8,0c-0.1-0.8-0.1-1.6,0-2.4c-0.1,0.4-0.1,0.7-0.1,1.1
				c0-0.1,0.1-0.3,0.1-0.4c-2.6-0.4-5.2-0.7-7.9-1.1c0,0.3-0.1,0.6,0,1c0.1,2.1,1.8,4.1,4,4c2.1-0.1,4.1-1.8,4-4c0-0.3,0-0.6,0-1
				c0.1-0.9-0.5-2.2-1.2-2.8s-1.4-1-2.3-1.1c-1.8-0.2-4,0.9-4.4,2.9c-0.2,1.3-0.4,2.6-0.2,4c0.1,1.1,0.4,2,1.2,2.8
				c0.7,0.7,1.8,1.2,2.8,1.2c1,0,2.1-0.4,2.8-1.2c0.2-0.3,0.4-0.5,0.6-0.8c0.4-0.6,0.5-1.3,0.6-2c0.1-0.9,0.2-1.8,0.4-2.7
				c0.1-0.9-0.5-2.2-1.2-2.8c-0.7-0.7-1.8-1.2-2.8-1.2c-1,0-2.1,0.4-2.8,1.2c-0.2,0.3-0.4,0.5-0.6,0.8
				C71.9,216.9,71.7,217.6,71.7,218.3L71.7,218.3z"/>
		</g>
	</g>
	<g>
		<g>
			<path d="M99.3,150.9c0.1,0.2,0.1,0.4,0.1,0.7c0-0.2-0.1-0.4-0.1-0.5c0,0.1,0,0.1,0,0.2c0-0.2,0.1-0.4,0.1-0.5c0,0,0,0.1,0,0.1
				c0.1-0.2,0.1-0.3,0.2-0.5c-0.1,0.3-0.3,0.5-0.4,0.8c-0.1,0.3-0.1,0.6-0.1,0.9c0,0.3,0,0.6,0,0.9c0,0.5,0.2,1,0.6,1.4
				c0.2,0.2,0.4,0.3,0.6,0.4c0.2,0.1,0.5,0.2,0.8,0.2c0.5,0,1.1-0.2,1.4-0.6c0.4-0.4,0.6-0.9,0.6-1.4c0-0.2,0-0.5,0-0.7
				c0-0.2,0-0.4,0-0.6c0,0.2-0.1,0.4-0.1,0.5c0,0,0-0.1,0-0.1c-0.1,0.2-0.1,0.3-0.2,0.5c0.1-0.3,0.3-0.5,0.3-0.8
				c0.1-0.3,0.1-0.5,0.1-0.8c0-0.4-0.1-0.8-0.2-1.2c-0.1-0.3-0.2-0.5-0.4-0.7c-0.1-0.2-0.3-0.4-0.6-0.5c-0.2-0.1-0.5-0.2-0.7-0.2
				c-0.3-0.1-0.5-0.1-0.8,0c-0.5,0.2-0.9,0.5-1.2,0.9C99.3,149.9,99.2,150.4,99.3,150.9L99.3,150.9z"/>
		</g>
	</g>
	<g>
		<g>
			<path d="M99.4,153C99.4,153,99.4,153.1,99.4,153c0.2,0.3,0.5,0.4,0.7,0.5c0.2,0.1,0.5,0.2,0.8,0.2c0.3,0,0.5,0,0.8-0.2
				c0.2-0.1,0.5-0.2,0.6-0.4c0.1-0.1,0.2-0.3,0.3-0.4c0.2-0.3,0.3-0.6,0.3-1c0-0.2-0.1-0.4-0.1-0.5c-0.1-0.3-0.3-0.6-0.5-0.9
				c0,0,0,0-0.1-0.1c-0.2-0.2-0.4-0.3-0.6-0.4c-0.2-0.1-0.5-0.2-0.8-0.2c-0.3,0-0.5,0-0.8,0.2c-0.2,0.1-0.5,0.2-0.6,0.4
				c-0.1,0.1-0.2,0.3-0.3,0.4c-0.2,0.3-0.3,0.6-0.3,1c0,0.2,0.1,0.4,0.1,0.5C99,152.5,99.1,152.8,99.4,153L99.4,153z"/>
		</g>
	</g>
	<g>
		<g>
			<path d="M98.7,152.1C98.7,152.2,98.7,152.2,98.7,152.1c0,0.3,0.1,0.6,0.2,0.8c0.1,0.2,0.2,0.5,0.4,0.6c0.2,0.2,0.4,0.3,0.6,0.4
				c0.2,0.1,0.5,0.2,0.8,0.2c0.2,0,0.4,0,0.5-0.1c0.3-0.1,0.6-0.3,0.9-0.5c0.1-0.1,0.2-0.3,0.3-0.4c0.2-0.3,0.3-0.6,0.3-1
				c0,0,0,0,0-0.1c0-0.3-0.1-0.5-0.2-0.8c-0.1-0.2-0.2-0.5-0.4-0.6c-0.2-0.2-0.4-0.3-0.6-0.4c-0.2-0.1-0.5-0.2-0.8-0.2
				c-0.2,0-0.4,0-0.5,0.1c-0.3,0.1-0.6,0.3-0.9,0.5c-0.1,0.1-0.2,0.3-0.3,0.4C98.8,151.5,98.7,151.8,98.7,152.1L98.7,152.1z"/>
		</g>
	</g>
	<g>
		<g>
			<path d="M100.1,150.3c-0.1,0-0.1,0-0.2,0.1c-0.3,0.1-0.5,0.2-0.7,0.4c-0.2,0.1-0.4,0.3-0.5,0.6c-0.1,0.2-0.2,0.5-0.2,0.7
				c-0.1,0.3-0.1,0.5,0,0.8c0.1,0.2,0.1,0.3,0.2,0.5c0.2,0.3,0.4,0.5,0.7,0.7c0.2,0.1,0.3,0.1,0.5,0.2c0.4,0.1,0.7,0.1,1.1,0
				c0.1,0,0.1,0,0.2-0.1c0.3-0.1,0.5-0.2,0.7-0.4c0.2-0.1,0.4-0.3,0.5-0.6c0.1-0.2,0.2-0.5,0.2-0.7c0.1-0.3,0.1-0.5,0-0.8
				c-0.1-0.2-0.1-0.3-0.2-0.5c-0.2-0.3-0.4-0.5-0.7-0.7c-0.2-0.1-0.3-0.1-0.5-0.2C100.8,150.2,100.4,150.2,100.1,150.3L100.1,150.3z
				"/>
		</g>
	</g>
	<g>
		<g>
			<path d="M99.6,150.5c0,0-0.1,0-0.1,0.1c-0.2,0.1-0.4,0.3-0.6,0.5c-0.2,0.2-0.3,0.4-0.4,0.7c-0.1,0.3-0.1,0.5,0,0.8
				c0,0.3,0.1,0.5,0.2,0.7c0.1,0.1,0.2,0.3,0.3,0.4c0.2,0.2,0.5,0.4,0.9,0.5c0.2,0,0.4,0,0.5,0.1c0.4,0,0.7-0.1,1-0.3
				c0,0,0.1,0,0.1-0.1c0.2-0.1,0.4-0.3,0.6-0.5c0.2-0.2,0.3-0.4,0.4-0.7c0.1-0.3,0.1-0.5,0-0.8c0-0.3-0.1-0.5-0.2-0.7
				c-0.1-0.1-0.2-0.3-0.3-0.4c-0.2-0.2-0.5-0.4-0.9-0.5c-0.2,0-0.4,0-0.5-0.1C100.2,150.2,99.9,150.3,99.6,150.5L99.6,150.5z"/>
		</g>
	</g>
	<g>
		<g>
			<path d="M101.7,154.1c0,0,0.1,0,0.1,0c0.3,0,0.5,0,0.8-0.2c0.2-0.1,0.5-0.2,0.6-0.4c0.2-0.2,0.3-0.4,0.4-0.6
				c0.1-0.2,0.2-0.5,0.2-0.8c0-0.2-0.1-0.4-0.1-0.5c-0.1-0.3-0.3-0.6-0.5-0.9c-0.1-0.1-0.3-0.2-0.4-0.3c-0.3-0.2-0.6-0.3-1-0.3
				c0,0-0.1,0-0.1,0c-0.3,0-0.5,0-0.8,0.2c-0.2,0.1-0.5,0.2-0.6,0.4c-0.2,0.2-0.3,0.4-0.4,0.6c-0.1,0.2-0.2,0.5-0.2,0.8
				c0,0.2,0.1,0.4,0.1,0.5c0.1,0.3,0.3,0.6,0.5,0.9c0.1,0.1,0.3,0.2,0.4,0.3C101,154.1,101.3,154.1,101.7,154.1L101.7,154.1z"/>
		</g>
	</g>
	<g>
		<g>
			<path d="M100.4,152.3C100.4,152.3,100.4,152.4,100.4,152.3c0,0.3,0.1,0.6,0.2,0.8c0.1,0.2,0.2,0.5,0.4,0.6
				c0.2,0.2,0.4,0.3,0.6,0.4c0.2,0.1,0.5,0.2,0.8,0.2c0.2,0,0.4,0,0.5-0.1c0.3-0.1,0.6-0.3,0.9-0.5c0.1-0.1,0.2-0.3,0.3-0.4
				c0.2-0.3,0.3-0.6,0.3-1c0,0,0,0,0-0.1c0-0.3-0.1-0.5-0.2-0.8c-0.1-0.2-0.2-0.5-0.4-0.6c-0.2-0.2-0.4-0.3-0.6-0.4
				c-0.2-0.1-0.5-0.2-0.8-0.2c-0.2,0-0.4,0-0.5,0.1c-0.3,0.1-0.6,0.3-0.9,0.5c-0.1,0.1-0.2,0.3-0.3,0.4
				C100.4,151.6,100.4,152,100.4,152.3L100.4,152.3z"/>
		</g>
	</g>
	<g>
		<g>
			<path d="M74.7,153C74.8,153.1,74.8,153.1,74.7,153c-0.1-0.1-0.1-0.3-0.2-0.5c0,0,0,0,0,0c0-0.2-0.1-0.4-0.1-0.5c0,0,0,0,0,0.1
				c0-0.2,0.1-0.4,0.1-0.5c0,0,0,0.1,0,0.1c0.1-0.2,0.1-0.3,0.2-0.5c-0.1,0.1-0.1,0.3-0.2,0.5c0,0.1-0.1,0.2-0.1,0.3
				c0,0.1,0,0.3,0,0.3c0-0.1,0,0.2,0,0.3c0,0,0,0,0,0s0,0,0,0c0,0.2,0.1,0.4,0.1,0.5c0,0,0,0,0,0.1c0,0.1,0.2,0.4,0.2,0.5
				c0,0,0,0,0,0c0,0,0,0,0,0c0.1,0.1,0.2,0.3,0.3,0.4c0,0,0,0,0.1,0.1c0,0,0.1,0.1,0.1,0.1c0.2,0.1,0.3,0.3,0.5,0.4
				c0.1,0.1,0.2,0.1,0.2,0.1c0,0,0.1,0,0.1,0.1c0.2,0.1,0.4,0.2,0.6,0.2c0.1,0,0.2,0.1,0.3,0.1c0,0,0,0,0.1,0c0.2,0,0.4,0.1,0.6,0.1
				c0,0,0,0,0,0c0,0,0,0,0,0c0,0,0.5-0.1,0.5-0.1c0.1,0,0.1,0,0.3-0.1c0.3-0.1,0.2-0.1,0.4-0.3c0,0,0.1-0.1,0.2-0.2
				c0.1-0.1,0.2-0.3,0.3-0.4l0,0c0,0,0.2-0.4,0.2-0.5c0-0.2,0.1-0.4,0.1-0.5c0-0.2-0.1-0.4-0.1-0.5c0-0.1,0,0-0.1-0.2
				c-0.1-0.3-0.1-0.2-0.3-0.5c-0.2-0.3-0.1-0.2-0.4-0.4c-0.3-0.2-0.1-0.1-0.4-0.3c-0.1,0-0.2-0.1-0.2-0.1c0,0-0.5-0.1-0.5-0.1
				c0,0-0.5,0.1-0.5,0.1s-0.5,0.2-0.5,0.2c0,0-0.4,0.3-0.4,0.3c-0.1,0.1-0.1,0.1-0.2,0.2c-0.2,0.2-0.3,0.4-0.4,0.7
				c0,0.1-0.1,0.4,0,0.3c-0.1,0.2-0.1,0.4,0,0.5c0,0.1,0,0.2,0,0.3c0.1,0.3,0.2,0.5,0.4,0.7c0.1,0.2,0.3,0.4,0.6,0.5
				c0.2,0.1,0.5,0.2,0.7,0.2c0.3,0.1,0.5,0,0.8,0c0.2-0.1,0.3-0.1,0.5-0.2c0.3-0.2,0.5-0.4,0.7-0.7c0.1-0.2,0.1-0.3,0.2-0.5
				c0.1-0.4,0.1-0.7,0-1.1v0c0,0.4,0,0.7,0,1.1c0,0,0,0,0,0c-0.2,0.3-0.3,0.6-0.5,0.9l0,0c-0.3,0.2-0.6,0.3-0.9,0.5c0,0,0,0,0,0
				c-0.2,0-0.4,0-0.5,0.1c0,0,0,0,0,0c-0.2,0-0.4,0-0.5-0.1h0c-0.2-0.1-0.3-0.1-0.5-0.2h0c-0.1-0.1-0.3-0.2-0.4-0.3c0,0,0,0,0,0
				c-0.1-0.1-0.2-0.3-0.3-0.4c0,0,0,0,0,0c-0.1-0.2-0.1-0.3-0.2-0.5v0c0-0.4,0-0.7,0-1.1v0c0.1-0.2,0.1-0.3,0.2-0.5l0,0
				c0.1-0.1,0.2-0.3,0.3-0.4l0,0c0.1-0.1,0.3-0.2,0.4-0.3c0,0,0,0,0,0c0.2-0.1,0.3-0.1,0.5-0.2c0,0,0,0,0,0c0.2,0,0.4,0,0.5-0.1
				c0,0,0,0-0.1,0c0.2,0,0.4,0,0.5,0.1c-0.2,0-0.3-0.1-0.5-0.1c0.2,0.1,0.3,0.1,0.5,0.2c-0.2-0.1-0.4-0.2-0.5-0.3
				c0.1,0.1,0.3,0.2,0.4,0.3c-0.1,0-0.1-0.1-0.2-0.2c0.1,0.1,0.2,0.3,0.3,0.4c0,0,0,0,0-0.1c0.1,0.2,0.1,0.3,0.2,0.5c0,0,0,0,0-0.1
				c0,0.2,0.1,0.4,0.1,0.5c0,0,0,0,0-0.1c0,0.2-0.1,0.4-0.1,0.5c0,0,0-0.1,0-0.1c-0.1,0.2-0.1,0.3-0.2,0.5c0.1-0.2,0.2-0.5,0.3-0.7
				c0.1-0.2,0.1-0.4,0.1-0.6c0-0.4-0.1-0.7-0.3-1.1c-0.1-0.2-0.3-0.4-0.5-0.6c-0.2-0.2-0.4-0.3-0.7-0.4c-0.3-0.1-0.5-0.1-0.8,0
				c-0.3,0-0.5,0.1-0.7,0.2c-0.1,0.1-0.3,0.2-0.4,0.3c-0.2,0.2-0.4,0.5-0.5,0.9c0,0.2-0.1,0.4-0.1,0.5
				C74.5,152.4,74.6,152.7,74.7,153L74.7,153z"/>
		</g>
	</g>
	<g>
		<g>
			<path d="M76.1,151.7c0,0.1,0,0.3,0,0.4c0,0.2,0.1,0.5,0.1,0.7c0,0.1,0,0.1,0,0.2c0.1,0.3,0.2,0.5,0.4,0.7
				c0.1,0.2,0.3,0.4,0.6,0.5c0.2,0.1,0.5,0.2,0.7,0.2c0.3,0.1,0.5,0,0.8,0c0.2-0.1,0.3-0.1,0.5-0.2c0.3-0.2,0.5-0.4,0.7-0.7
				c0.1-0.2,0.1-0.3,0.2-0.5c0.1-0.4,0.1-0.7,0-1.1c0-0.1,0-0.2-0.1-0.3c0,0.2,0.1,0.4,0.1,0.5c0-0.2,0-0.4,0-0.6
				c0-0.3-0.1-0.5-0.2-0.8c-0.1-0.2-0.2-0.5-0.4-0.6c-0.2-0.2-0.4-0.3-0.6-0.4c-0.2-0.1-0.5-0.2-0.8-0.2c-0.2,0-0.4,0-0.5,0.1
				c-0.3,0.1-0.6,0.3-0.9,0.5c-0.1,0.1-0.2,0.3-0.3,0.4C76.1,151,76.1,151.3,76.1,151.7L76.1,151.7z"/>
		</g>
	</g>
	<g>
		<g>
			<path d="M74.4,150.7c-0.1,0.2-0.1,0.5-0.1,0.7c0,0.1,0,0.1,0,0.2c0,0.2,0,0.5,0.1,0.7c0,0.1,0,0.1,0.1,0.2
				c0.1,0.3,0.2,0.5,0.4,0.8c0.2,0.2,0.4,0.5,0.6,0.7c0.2,0.2,0.4,0.4,0.6,0.5c0.2,0.2,0.5,0.4,0.7,0.6c0.2,0.2,0.4,0.3,0.6,0.4
				c0.2,0.1,0.5,0.2,0.8,0.2c0.3,0,0.5,0,0.8-0.2c0.2-0.1,0.5-0.2,0.6-0.4c0.4-0.4,0.6-0.9,0.6-1.4c0-0.2-0.1-0.4-0.1-0.5
				c-0.1-0.3-0.3-0.6-0.5-0.9c-0.3-0.2-0.6-0.5-0.9-0.7c-0.3-0.2-0.5-0.4-0.8-0.7c0.1,0.1,0.2,0.3,0.3,0.4c-0.1-0.1-0.1-0.2-0.2-0.3
				c0.1,0.2,0.1,0.3,0.2,0.5c0-0.1-0.1-0.2-0.1-0.3c0,0.2,0.1,0.4,0.1,0.5c0-0.1,0-0.2,0-0.3c0,0.2-0.1,0.4-0.1,0.5c0,0,0-0.1,0-0.1
				c0.1-0.3,0.1-0.5,0-0.8c0-0.3-0.1-0.5-0.2-0.7c-0.1-0.2-0.3-0.4-0.5-0.6c-0.2-0.2-0.4-0.3-0.7-0.4c-0.5-0.1-1.1-0.1-1.5,0.2
				C74.9,149.8,74.6,150.1,74.4,150.7L74.4,150.7z"/>
		</g>
	</g>
	<g>
		<g>
			<path d="M78.9,156.4c2.6,0,2.6-4,0-4C76.3,152.4,76.3,156.4,78.9,156.4L78.9,156.4z"/>
		</g>
	</g>
</g>
<g id="котик1">
	<path class="st5" d="M130.1,79"/>
	<path class="st17" d="M79.1,231c-0.8-4.5-1.7-10.1,0-17c1.2-5,2.7-6,5.5-14.5c0.6-2,0.8-2.5,3.5-12.5c3.4-12.2,3.9-13.9,5.5-14.5
		c2.6-1,4.7,1.9,13.5,7.5c6.3,4,11,7,17.5,8.5c7,1.7,12.8,0.9,15.5,0.5c3.4-0.5,9.2-1.3,15-5c9.1-5.8,10.3-13.6,14-13
		c2.1,0.4,2.4,3,7.5,13.5c2.2,4.5,1.7,3,5.5,10.5c4.8,9.5,7.2,14.2,8.5,17.5c2.8,7.4,5.6,14.5,4.5,23.5c-1.2,10.2-6.9,18.5-8,20
		c-5.3,7.4-7.6,8-8,12c-1,9.8,14.2,16.1,12.5,20.5c-1.4,3.5-12.2,2-29,1c-28.1-1.7-25.3,0.8-33-1C99,281.3,81.8,247.1,79.1,231z"/>
	<g>
		<g>
			<path d="M150.4,220c3.2,0,3.2-5,0-5S147.1,220,150.4,220L150.4,220z"/>
		</g>
	</g>
	<g>
		<g>
			<path d="M115.5,217.5c0,0.1,0,0.2,0,0.2c0,0.3,0.1,0.7,0.2,1c0.1,0.3,0.3,0.6,0.5,0.8c0.2,0.2,0.5,0.4,0.8,0.5
				c0.3,0.2,0.6,0.2,1,0.2c0.2,0,0.4-0.1,0.7-0.1c0.4-0.1,0.8-0.3,1.1-0.6c0.1-0.2,0.3-0.3,0.4-0.5c0.2-0.4,0.3-0.8,0.3-1.3
				c0-0.1,0-0.2,0-0.2c0-0.3-0.1-0.7-0.2-1c-0.1-0.3-0.3-0.6-0.5-0.8c-0.2-0.2-0.5-0.4-0.8-0.5c-0.3-0.2-0.6-0.2-1-0.2
				c-0.2,0-0.4,0.1-0.7,0.1c-0.4,0.1-0.8,0.3-1.1,0.6c-0.1,0.2-0.3,0.3-0.4,0.5C115.6,216.6,115.5,217,115.5,217.5L115.5,217.5z"/>
		</g>
	</g>
	<path class="st10" d="M130.2,231.2c0.5-0.8,1.6-1.3,2.5-1.2s1.2,1,2.5,1.2c0.2,0,0.7,0.1,1.2,0c1.3-0.2,1.6-1,2.5-1.2
		c0.9-0.1,2.1,0.4,2.5,1.2c0.9,1.6-1.4,4.3-2.5,5.7c-0.9,1-2.5,2.6-2.5,2.6l0,0c0,0-2.4-1.2-3.9-2.6
		C131,235.5,129.2,232.8,130.2,231.2z"/>
	<path class="st13" d="M124.6,245.5c-1.5-2.4-2-3-2-3C122.5,242.6,123.1,244.5,124.6,245.5c2.4,1.6,5.7,0.1,6,0c0.2-0.1,2.8-1.3,4-4
		c0.7-1.6,0.7-3,1-3c0.3,0,0.3,1.5,1,3c1.4,3,4.8,4,5,4c0.2,0,4.2,1,6-1c1-1.2,1.1-3,1-3c0,0-0.3,0.7-1,3"/>
	<path class="st13" d="M137.6,229.5"/>
	<g>
		<g>
			<path d="M150.5,221.1c4.5,0,4.5-7,0-7C146,214.1,146,221.1,150.5,221.1L150.5,221.1z"/>
		</g>
	</g>
	<g>
		<g>
			<path d="M118.2,221.1c4.5,0,4.5-7,0-7S113.6,221.1,118.2,221.1L118.2,221.1z"/>
		</g>
	</g>
	<line class="st9" x1="129.6" y1="288.5" x2="205.6" y2="288.5"/>
</g>
<g id="Руки">
	<path class="st11" d="M15.6,166.5c-16.7,10.5-14.1,62.1,10,76c11.1,6.4,25.7,3.9,28,3c3.2-1.2,5-4,5-4c0.7-1,0.9-1.6,1-2
		c0.5-1.8,0-3.9-1-5c-1.7-1.9-4.4-0.5-9-1c-6.1-0.6-10.6-4.1-10.5-4.5c0.1-0.3,3.7,1.2,10.5,2.5c3.7,0.7,5.6,1.1,8,1c0,0,6-0.2,10-3
		c0.8-0.6,2.5-1.8,3-3.9c0,0,0-0.1,0-0.1c0.4-2-1-4-2-5c-1.7-1.7-4.2-1.8-9-2c-2.3-0.1-2.3,0.1-4,0c-6.2-0.3-11.1-2.8-11-3
		c0-0.1,2.8,1,8,2c4.7,0.9,7,1.3,10,1c1.5-0.2,9.4-1.1,11-6c0.7-2.1,0.2-5-1.5-6.5c-1.1-1-2.6-1.3-3.5-1.5c-1.7-0.3-3-0.1-4,0
		c-3.7,0.5-6.9,0.1-8,0c-2.1-0.2-4.9-0.8-8-2c-1.9-0.8-4.1-1.8-4-2c0.1-0.3,4.9,1.8,12,3c5.1,0.9,7.2,0.6,9,0
		c1.4-0.5,4.9-1.7,5.5-4.5c0.5-2.5-1.4-4.9-3-6c-0.9-0.6-1.7-0.9-5.5-1.5c-3.4-0.5-5.7-0.8-7-1c-3.8-0.5-6.5-1.3-9-2
		c-7-2-12.1-4.7-12-5c0.2-0.5,15.8,7.7,20,3c1.2-1.3,1.1-3.3,1-4c-0.2-3.2-2.7-5.5-9-10c-6.9-5-10.3-7.5-12-8
		C27.6,162.4,19.9,163.9,15.6,166.5z"/>
	<path class="st13" d="M52.6,217.5"/>
	<path class="st13" d="M46.6,190.5"/>
	<path class="st11" d="M125.6,270.5c-1.9-6.3-5.2-10-7-12c-4-4.4-6.7-4.9-8-5c-0.8,0-2.6-0.1-4,1c-0.5,0.4-2,1.8-2,6
		c-0.1,6.3,3.1,11,3,11c-0.1,0.1-3.9-6.1-7-15c-0.7-2.1-1.4-4.1-2-7c-0.3-1.4-0.7-3.7-1-6c-0.4-3-0.5-3.7-1-5c-0.5-1.3-1.3-3-3-4
		c-1.7-1-4.2-1.2-6,0c-1,0.7-1.6,1.7-2,3c-0.8,2.2-1.4,5.2-1,10c0.1,1.1,0.5,6.2,2.9,12.3c0.7,1.7,1.2,2.7,1.1,2.7c0,0-1.9-3.6-3-8
		c-0.3-1.1-1.3-5.4-1-11c0.3-5.6,1.6-7.9,0-11c-0.4-0.7-1.2-2.3-3-3c-1.7-0.7-3.4-0.2-4,0c-2.4,0.7-3.7,2.5-4,3
		c-0.5,0.6-1.6,2.3-2,10c-0.2,3.6-0.3,5.4,0,8c0.3,2.7,0.8,4.8,1.8,8.7c0.6,2.2,1.2,4.3,1.2,4.3c0.1,0-2.5-5.5-3-13
		c-0.4-5.4,0.5-9-2-12c-0.4-0.5-1.4-1.6-3-2c-2.5-0.6-4.7,0.8-5,1c-3.8,2.5-3.3,9.3-3,13c0.6,9,4.1,16,4,16c-0.1,0-1.1-1.9-2-5
		c-2-6.9-0.6-9.9-3-12c-1.6-1.4-4.2-1.9-6-1c-3.7,1.8-3.2,9.2-3,12c0.2,2.4,0.8,6.6,4,13c4,7.9,9,13.2,12,16c3.1,2.9,9.2,8.5,19,12
		c6.3,2.2,15,5.4,25,2c2-0.7,12.8-4.3,17-15C128.7,280.8,126.5,273.5,125.6,270.5z"/>
	<path class="st13" d="M72.6,238.5"/>
</g>
</svg>
